<?xml version="1.0" encoding="utf-8"?>
<!-- Generator: Adobe Illustrator 25.0.0, SVG Export Plug-In . SVG Version: 6.00 Build 0)  -->
<svg version="1.1" id="Layer_1" xmlns="http://www.w3.org/2000/svg" xmlns:xlink="http://www.w3.org/1999/xlink" x="0px" y="0px"
	 viewBox="0 0 56.7 56.7" style="enable-background:new 0 0 56.7 56.7;" xml:space="preserve">
<style type="text/css">
	.st0{fill:#CDE9E3;}
	.st1{fill:#14385F;}
</style>
<g>
	<path class="st0" d="M35.2,54c0.6-0.1,1-0.2,1.5-0.3c1.4-0.6,2.2-1.7,2.3-3.3c0.1-0.7,0.3-1.2,1-1.4c0.2-0.1,0.5-0.1,0.7-0.1
		c2.7-0.3,4.2-3,3-5.4c-0.5-1-0.3-1.5,0.6-2.2c2.2-1.5,2.2-4.7,0-6.2c-0.9-0.6-1.1-1.1-0.6-2.2c1.2-2.4-0.5-5.2-3.2-5.4
		c-1-0.1-1.4-0.5-1.5-1.5c-0.1-2.8-2.9-4.4-5.4-3.1c-0.2,0.1-0.3,0.2-0.5,0.2c-0.7,0.1-1.2-0.2-1.5-0.8c-1.5-2.3-4.7-2.2-6.2,0
		c-0.6,0.9-1.2,1-2.2,0.6c-1.1-0.6-2.2-0.6-3.3,0c-1.3,0.7-1.9,1.8-2,3.2c-0.1,0.9-0.6,1.4-1.4,1.5c-2.9,0.1-4.5,2.9-3.2,5.5
		c0.4,0.8,0.2,1.5-0.5,1.9c-2.4,1.5-2.4,4.7-0.1,6.3c0.9,0.6,1,1.2,0.5,2.1c-0.4,0.8-0.5,1.7-0.3,2.5c0.4,1.7,1.7,2.7,3.5,2.8
		c1,0.1,1.4,0.5,1.5,1.5c0,0.6,0.2,1.2,0.5,1.8c1,1.7,3.1,2.3,4.9,1.4c0.9-0.4,1.5-0.3,2,0.5c1.5,2.4,4.7,2.4,6.3,0.1
		c0.5-0.8,1.1-0.9,2-0.5C34.1,53.6,34.7,53.8,35.2,54z"/>
	<path class="st1" d="M28.4,56.6C28.4,56.6,28.3,56.6,28.4,56.6c-1.6,0-3-0.9-3.9-2.2c-0.2-0.3-0.3-0.4-0.9-0.2
		c-2.2,1.1-4.8,0.4-6-1.7C17.2,52,17,51.2,17,50.4c0-0.5-0.1-0.6-0.6-0.7c-2.2-0.2-3.8-1.5-4.3-3.5c-0.2-1.1-0.1-2.1,0.4-3.1
		c0.3-0.5,0.2-0.6-0.2-0.9c-1.4-0.9-2.2-2.3-2.2-3.9c0-1.6,0.8-3,2.2-3.9c0.3-0.2,0.4-0.4,0.2-0.8c-0.7-1.5-0.7-3.2,0.1-4.5
		c0.8-1.4,2.2-2.2,3.9-2.3c0.3,0,0.5-0.1,0.5-0.6c0.1-1.8,1-3.1,2.5-3.9c1.3-0.7,2.7-0.7,4.1,0c0.6,0.3,0.7,0.2,1-0.2
		c0.9-1.3,2.3-2.1,3.8-2.1c1.5,0,3,0.8,3.8,2.1c0.3,0.5,0.5,0.5,0.6,0.5c0.1,0,0.2-0.1,0.3-0.1c1.4-0.7,3.1-0.7,4.4,0.1
		c1.3,0.8,2.2,2.2,2.3,3.8c0,0.5,0.2,0.6,0.6,0.6c1.6,0.1,3,0.9,3.8,2.2c0.8,1.3,0.9,3,0.1,4.4c-0.3,0.6-0.3,0.6,0.2,1
		c1.3,0.9,2.1,2.3,2.1,3.8s-0.8,3-2.1,3.8c-0.6,0.3-0.6,0.4-0.3,1c0.7,1.4,0.7,3-0.1,4.3c-0.7,1.3-2.1,2.2-3.6,2.3h-0.2
		c-0.2,0-0.3,0-0.4,0.1c-0.1,0.1-0.3,0.1-0.3,0.6c-0.1,1.9-1.1,3.3-2.8,4c-0.4,0.2-0.7,0.2-1.1,0.3c-0.2,0.1-0.3,0.1-0.5,0.1
		l-0.2,0.1l-0.2-0.1c-0.2-0.1-0.3-0.1-0.5-0.1c-0.4-0.1-0.9-0.2-1.3-0.5c-0.6-0.2-0.7-0.1-0.9,0.2C31.4,55.8,29.9,56.6,28.4,56.6z
		 M24.1,52.3c0.7,0,1.4,0.4,1.9,1.1c0.6,0.9,1.4,1.4,2.4,1.4c1,0.1,1.8-0.5,2.4-1.4c0.5-0.8,1.5-1.6,3.1-0.9c0.3,0.2,0.7,0.2,1,0.3
		c0.1,0,0.2,0.1,0.3,0.1c0.1,0,0.2-0.1,0.3-0.1c0.3-0.1,0.6-0.1,0.7-0.2c1.1-0.5,1.7-1.3,1.7-2.5c0.1-1.1,0.6-1.9,1.6-2.2
		c0.3-0.1,0.5-0.1,0.7-0.1h0.2c1-0.1,1.8-0.6,2.2-1.4c0.5-0.8,0.5-1.8,0-2.6c-0.7-1.4-0.4-2.4,0.9-3.3c0.8-0.6,1.3-1.4,1.3-2.3
		c0-1-0.5-1.8-1.3-2.3c-1.3-0.9-1.5-1.9-0.9-3.3c0.5-0.9,0.4-1.9-0.1-2.7c-0.5-0.8-1.3-1.3-2.3-1.4c-1.4-0.1-2.3-0.9-2.3-2.3
		c-0.1-1-0.6-1.9-1.4-2.3c-0.8-0.5-1.8-0.5-2.7,0c-0.3,0.2-0.5,0.2-0.8,0.3c-1,0.2-1.8-0.2-2.4-1.2c-0.5-0.8-1.4-1.3-2.3-1.3
		S26.6,22.2,26,23c-0.8,1.3-1.9,1.5-3.3,0.9c-0.9-0.5-1.7-0.5-2.5,0c-1,0.5-1.5,1.3-1.5,2.4c-0.1,1.4-0.9,2.3-2.3,2.3
		c-1.1,0.1-1.9,0.6-2.4,1.4c-0.5,0.9-0.5,1.8,0,2.8c0.6,1.2,0.3,2.4-0.9,3.1c-0.9,0.6-1.4,1.4-1.4,2.4c0,1,0.5,1.8,1.4,2.4
		c1.3,0.8,1.5,1.9,0.9,3.2c-0.3,0.6-0.4,1.2-0.2,1.9c0.3,1.3,1.3,2.1,2.7,2.2c1.4,0.1,2.2,0.9,2.3,2.4c0,0.5,0.2,0.9,0.4,1.3
		c0.8,1.3,2.3,1.7,3.7,1C23.3,52.4,23.7,52.3,24.1,52.3z"/>
	<path class="st1" d="M23.7,32.6c-0.1,0-0.1,0-0.2,0c-0.5-0.1-0.8-0.6-0.7-1c0-0.1,0.3-1.9,2-2.9c1.2-0.7,2.7-0.7,4.6-0.1
		c0.5,0.2,0.7,0.7,0.6,1.1c-0.2,0.5-0.7,0.7-1.1,0.6c-1.3-0.5-2.3-0.5-3.1-0.1c-0.9,0.5-1.1,1.7-1.1,1.7
		C24.5,32.3,24.1,32.6,23.7,32.6z"/>
	<path class="st1" d="M25.2,49.2c-0.5,0-2-0.1-3.1-1.3c-1-1-1.4-2.5-1.2-4.4c0.1-0.5,0.5-0.9,1-0.8c0.5,0.1,0.9,0.5,0.8,1
		c-0.1,1.4,0.1,2.4,0.7,3c0.7,0.7,1.9,0.7,1.9,0.7c0.5,0,0.9,0.3,1,0.9c0.1,0.5-0.3,0.9-0.9,1C25.3,49.2,25.3,49.2,25.2,49.2z"/>
	<path class="st1" d="M32.6,42.7c-0.6,0-1.3-0.1-1.9-0.3c-0.5-0.1-0.8-0.6-0.6-1.1c0.1-0.5,0.6-0.8,1.1-0.6c1.4,0.3,2.4,0.3,3.1-0.2
		c0.9-0.6,1-1.8,1-1.8c0.1-0.5,0.5-0.9,1-0.8c0.5,0.1,0.9,0.5,0.9,1c0,0.1-0.2,1.9-1.7,3.1C34.6,42.4,33.6,42.7,32.6,42.7z"/>
	<path class="st1" d="M33.5,24c-0.1,0-0.2,0-0.3-0.1c-0.5-0.2-0.7-0.7-0.5-1.2c0.1-0.1,4.7-11.3,1.9-17.4c-0.8-1.7-2.1-2.7-3.9-3.2
		c-1.5-0.5-2.6-0.3-3.3,0.5c-2.8,2.9,0.1,14,1.4,18c0.2,0.5-0.1,1-0.6,1.1c-0.5,0.2-1-0.1-1.1-0.6c-0.5-1.6-5-15.6-1-19.8
		C27.3,0,29-0.3,31.2,0.4c2.3,0.7,4,2.1,5.1,4.2c3.2,6.7-1.6,18.3-1.8,18.8C34.2,23.8,33.9,24,33.5,24z"/>
</g>
</svg>
