<svg width="24" height="21" viewBox="0 0 24 21" fill="none" xmlns="http://www.w3.org/2000/svg">
<path d="M8.07681 21C8.96896 21 9.69219 20.2768 9.69219 19.3847C9.69219 18.4925 8.96896 17.7693 8.07681 17.7693C7.18466 17.7693 6.46143 18.4925 6.46143 19.3847C6.46143 20.2768 7.18466 21 8.07681 21Z" fill="black"/>
<path d="M18.5768 21C19.469 21 20.1922 20.2768 20.1922 19.3847C20.1922 18.4925 19.469 17.7693 18.5768 17.7693C17.6847 17.7693 16.9614 18.4925 16.9614 19.3847C16.9614 20.2768 17.6847 21 18.5768 21Z" fill="black"/>
<path fill-rule="evenodd" clip-rule="evenodd" d="M0 0.80769C0 0.361615 0.361615 0 0.80769 0H2.50613C2.85717 6.41895e-08 3.19866 0.11435 3.47891 0.325744C3.75916 0.537138 3.96292 0.834069 4.05936 1.1716L4.87846 4.03845H22.3846C22.638 4.03845 22.8767 4.15742 23.0294 4.35975C23.182 4.56209 23.2308 4.82434 23.1612 5.06803L20.4959 14.3964C20.3513 14.9027 20.0456 15.3481 19.6252 15.6652C19.2049 15.9823 18.6926 16.1538 18.1661 16.1538H8.48769C7.96114 16.1538 7.44891 15.9823 7.02853 15.6652C6.60816 15.3481 6.30251 14.9027 6.15785 14.3964L3.49768 5.0858C3.49412 5.07432 3.49081 5.06273 3.48775 5.05103L2.50613 1.61538H0.80769C0.361615 1.61538 0 1.25377 0 0.80769ZM5.34 5.65383L7.71108 13.9526C7.7593 14.1214 7.86118 14.2699 8.00131 14.3756C8.14143 14.4813 8.31218 14.5384 8.48769 14.5384H18.1661C18.3416 14.5384 18.5123 14.4813 18.6525 14.3756C18.7926 14.2699 18.8945 14.1214 18.9427 13.9526L21.3138 5.65383H5.34Z" fill="black"/>
</svg>
