<?xml version="1.0" encoding="utf-8"?>
<!-- Generator: Adobe Illustrator 25.0.0, SVG Export Plug-In . SVG Version: 6.00 Build 0)  -->
<svg version="1.1" id="Layer_1" xmlns="http://www.w3.org/2000/svg" xmlns:xlink="http://www.w3.org/1999/xlink" x="0px" y="0px"
	 viewBox="0 0 85 85" style="enable-background:new 0 0 85 85;" xml:space="preserve">
<style type="text/css">
	.st0{fill:#FFEB96;}
	.st1{fill:#14385F;}
	.st2{fill:#BFDDA0;}
	.st3{fill:#1A365D;}
</style>
<g>
	<path class="st0" d="M67.4,1.8H1.8v65.7h65.7V1.8z"/>
	<path class="st1" d="M67.5,69.2H1.8c-0.9,0-1.6-0.8-1.6-1.6V1.9C0.2,1,1,0.3,1.8,0.3h65.7c0.9,0,1.6,0.8,1.6,1.6v65.7
		C69.1,68.4,68.4,69.2,67.5,69.2z M3.5,65.8h62.4V3.5H3.5V65.8z"/>
	<path class="st1" d="M44.4,1.8H24.9v19.5h19.5V1.8z"/>
	<path class="st2" d="M67.5,83.1c-8.6,0-15.7-7.1-15.7-15.6c0-8.6,7.1-15.7,15.7-15.7s15.6,7,15.6,15.6C83.1,76.1,76,83.1,67.5,83.1
		z"/>
	<path class="st1" d="M67.5,84.8c-9.5,0-17.3-7.8-17.3-17.3S58,50.2,67.5,50.2s17.3,7.8,17.3,17.3C84.7,77,77,84.8,67.5,84.8z
		 M67.5,53.6c-7.7,0-14,6.3-14,14s6.3,14,14,14s14-6.3,14-14C81.4,59.8,75.2,53.6,67.5,53.6z"/>
	<path class="st3" d="M62.4,68.3c0.9-0.1,1.7-0.1,2.6-0.2c0.8-0.1,1.5-0.3,2.1-0.9c0.5-0.4,0.8-1,0.9-1.7c-1.8,0-3.7,0-5.5,0
		c0-0.4,0-0.8,0-1.2c1.8,0,3.6,0,5.4,0c-0.2-0.8-0.6-1.3-1.2-1.5c-0.7-0.3-1.4-0.4-2-0.5c-0.7-0.1-1.4,0-2.1,0c0-0.5,0-1,0-1.5
		c3.3,0,6.7,0,10.1,0c0,0.4,0,0.8,0,1.2c-1.3,0-2.6,0-3.9,0c0.8,0.7,1.1,1.4,1.3,2.2c0,0.1,0.2,0.2,0.3,0.3c0.6,0,2.1,0,2.3,0
		c0,0.4,0,0.8,0,1.2c-0.9,0-1.7,0-2.6,0c-0.5,3-2.6,3.9-5.2,4.1c2,2.3,3.8,4.5,5.8,6.7c0,0,0,0.1-0.1,0.1c-0.7,0-1.4,0-2.1,0
		c-0.1,0-6-6.8-6-6.9C62.4,69.2,62.4,68.7,62.4,68.3z"/>
	<path class="st3" d="M69.5,76.9c-0.4,0-0.8,0-1.2,0c-0.3,0-0.3,0-3.3-3.6C62,69.8,62,69.8,62,69.6v-1.7l1.2-0.1
		c0.6,0,1.2-0.1,1.7-0.1c0.8-0.1,1.4-0.3,1.9-0.8c0.3-0.3,0.5-0.6,0.6-1H62v-2h5.2c-0.2-0.3-0.4-0.6-0.8-0.8c-0.6-0.3-1.3-0.4-2-0.5
		c-0.4-0.1-0.9-0.1-1.4,0c-0.3,0-0.4,0-0.7,0H62v-2.4H73v2h-3.4c0.3,0.5,0.6,1,0.8,1.6c0.5,0,1.6,0,2,0H73v2h-2.6
		c-0.6,2.9-2.8,3.8-4.7,4l5.5,6.4l-0.3,0.6h-0.7C69.9,76.9,69.7,76.9,69.5,76.9z M68.6,76.1c0.4,0,0.9,0,1.2,0L64,69.2l0.8-0.1
		c2.9-0.3,4.4-1.4,4.8-3.8l0.1-0.3h2.5v-0.3c-0.5,0-1.4,0-1.9,0c-0.3,0-0.7-0.3-0.7-0.5c-0.2-0.8-0.5-1.4-1.2-2l-0.9-0.7h4.6v-0.3
		h-9.3V62c0.1,0,0.2,0,0.3,0c0.5,0,1,0,1.5,0c0.8,0.1,1.5,0.3,2.1,0.5c0.7,0.3,1.2,0.9,1.4,1.9l0.1,0.5h-5.5v0.3h5.5l-0.1,0.4
		c-0.1,0.9-0.4,1.4-0.9,2c-0.6,0.6-1.4,0.9-2.3,1c-0.6,0.1-1.2,0.1-1.8,0.1l-0.4,0.1v0.7C63.4,70.2,67.8,75.3,68.6,76.1z"/>
</g>
</svg>
