<?xml version="1.0" encoding="utf-8"?>
<!-- Generator: Adobe Illustrator 25.0.0, SVG Export Plug-In . SVG Version: 6.00 Build 0)  -->
<svg version="1.1" id="Layer_1" xmlns="http://www.w3.org/2000/svg" xmlns:xlink="http://www.w3.org/1999/xlink" x="0px" y="0px"
	 viewBox="0 0 56.7 56.7" style="enable-background:new 0 0 56.7 56.7;" xml:space="preserve">
<style type="text/css">
	.st0{fill:#14385F;}
	.st1{fill:#BFDEA0;}
</style>
<g>
	<path class="st0" d="M56.5,21.9c-1.3-4.4-4.7-5.9-8.9-4.1C47.1,18,46.6,18,46.2,18c-3.8-0.6-7.4-1.9-10.6-4.1
		c-4.9-3.4-9.6-3.4-14.5,0c-3.1,2.2-6.7,3.5-10.5,4.1c-0.6,0.1-1.3,0-1.8-0.3c-3.2-1.4-6.5-0.3-8.1,2.8c-1.6,3.1-0.6,6.3,2.5,8.1
		c1.8,0.9,3.5,1.8,5.3,2.7c0.5,0.2,1,0.7,1.2,1.1c1.6,3.4,4.1,6,7,8.2c3.1,2.3,6.5,3.8,10.1,4.8c1,0,1.9,0,2.9,0
		c2-0.7,4.1-1.4,6-2.3c4.8-2.5,8.8-5.8,11.2-10.8c0.2-0.4,0.6-0.7,1-0.9c1.3-0.7,2.6-1.5,4-2.1c2.3-1,4-2.5,4.7-4.9c0-0.7,0-1.3,0-2
		C56.6,22.2,56.5,22,56.5,21.9z M8.4,29c-1.7-0.9-3.4-1.7-5-2.7c-1.7-1.1-1.9-3.4-0.7-5.3c1.2-1.8,3.3-2.5,5-1.5
		c0.3,0.2,0.7,0.9,0.7,1.3C8.5,23.4,8.4,26.1,8.4,29z M46.1,27.5c-0.3,2-1,4.1-2.1,5.8c-3.4,5.2-8.4,8.5-14.5,9.8
		c-0.9,0.2-2,0.2-2.9-0.1c-6.7-1.8-12.1-5.4-15.2-11.9c-0.7-1.4-0.9-3.1-1-4.6c-0.2-2.1-0.1-4.2-0.1-6.5c1-0.2,2-0.4,2.9-0.6
		c3.3-0.8,6.2-2.1,9-4c4-2.8,7.9-2.7,12,0c3.3,2.3,7,3.7,10.9,4.5c0.3,0.1,0.9,0.6,0.9,0.9C46.2,23,46.5,25.3,46.1,27.5z M53,26.3
		c-1.5,1-3.2,1.7-4.9,2.6c0-2.9,0.1-5.5,0-8.1c0-0.9,0.3-1.4,1.1-1.6c1.9-0.6,3.8,0.2,4.9,2.1C55.1,23.2,54.7,25.2,53,26.3z"/>
	<path class="st1" d="M45.3,19.9c-3.9-0.7-7.6-2.2-10.9-4.5c-4-2.7-7.9-2.8-12,0c-2.7,1.9-5.8,3.3-9,4c-1,0.2-1.9,0.4-2.9,0.6
		c0,2.2-0.1,4.3,0.1,6.5c0.1,1.5,0.3,3.3,1,4.6c3,6.5,8.4,10.1,15.1,11.9c0.9,0.2,2,0.3,2.9,0.1c6.1-1.4,11-4.6,14.5-9.8
		c1.1-1.7,1.8-3.8,2.1-5.8c0.3-2.2,0.1-4.5,0.1-6.8C46.2,20.4,45.6,19.9,45.3,19.9z M35.9,36.2c-7.6,2.7-9,2.3-15.3-0.1
		C20.3,36,20,35.2,20.1,35c0.2-0.3,0.8-0.7,1.2-0.6c2,0.5,3.8,1.4,5.9,1.7c1.4,0.2,2.8,0.1,4.1-0.3c1.4-0.3,2.6-1,4-1.3
		c0.3-0.1,1.1,0.1,1.3,0.5C36.7,35.4,36.2,36,35.9,36.2z M38.6,30.1c-1.2,0.4-2.4,0.8-3.6,1.2c-1.5,0.5-3.1,1.1-4.7,1.5
		C28.2,33.2,26,33,24,32.2c-1.9-0.7-4-1.3-6-2.1c-0.5-0.2-1-0.9-1-1.3c0.1-0.9,0.9-0.8,1.6-0.5c2.1,0.7,4.2,1.5,6.3,2.2
		s4.3,0.7,6.5,0.1c2.2-0.6,4.3-1.6,6.5-2.2c0.5-0.2,1.3-0.1,1.6,0.3C39.7,29,39.9,29.4,38.6,30.1z M41.1,24.1
		c-2.2,0.7-4.3,1.5-6.4,2.3c-1.4,0.5-2.7,1.1-4.1,1.4c-2,0.4-4.1,0.2-6-0.5c-3.1-1-6.2-2.2-9.2-3.2c-0.7-0.2-1.5-0.5-1.1-1.4
		c0.3-0.9,1.1-0.6,1.8-0.4c2.9,1,5.8,2,8.7,3c2.3,0.9,4.9,0.9,7.2,0c2.9-1,5.7-2,8.6-3c0.7-0.2,1.5-0.7,1.9,0.3
		C42.8,23.6,41.9,23.9,41.1,24.1z"/>
</g>
</svg>
