<?xml version="1.0" encoding="utf-8"?>
<!-- Generator: Adobe Illustrator 25.0.0, SVG Export Plug-In . SVG Version: 6.00 Build 0)  -->
<svg version="1.1" id="Layer_1" xmlns="http://www.w3.org/2000/svg" xmlns:xlink="http://www.w3.org/1999/xlink" x="0px" y="0px"
	 viewBox="0 0 56.7 56.7" style="enable-background:new 0 0 56.7 56.7;" xml:space="preserve">
<style type="text/css">
	.st0{fill:#14385F;}
	.st1{fill:#C8CAE5;}
</style>
<path class="st0" d="M37,5c-2.4-3.1-5.7-5-9.3-5c-3.7,0-6.9,1.9-9.3,5c-2.3,3-3.8,7.2-3.8,11.8c0,4.6,1.4,8.7,3.8,11.8
	c1.7,2.2,3.8,3.8,6.2,4.5c1,5.9,0.3,9.9-0.4,13.6c-0.4,2-0.7,3.9-0.8,6c0,1.3,0.3,2.3,1.3,3.1c1.6,1.4,4.3,1.4,5.9,0
	c1-0.9,1.3-1.9,1.3-3.1c-0.1-2.1-0.4-4-0.8-6c-0.7-3.7-1.4-7.7-0.4-13.6c2.4-0.7,4.5-2.3,6.2-4.5c2.3-3,3.8-7.2,3.8-11.8
	C40.7,12.2,39.3,8,37,5z M30.4,52.7c0,0.7-0.2,1.5-0.8,1.9c-1,0.9-2.9,0.9-3.9,0c-0.6-0.5-0.8-1.3-0.8-1.9c0.1-1.9,0.4-3.8,0.7-5.8
	c0.7-3.7,1.4-7.7,0.5-13.5c0.5,0.1,1,0.1,1.5,0.1c0.5,0,1-0.1,1.5-0.1c-1,5.9-0.2,9.9,0.5,13.5C30,48.8,30.3,50.7,30.4,52.7z
	 M35.7,27.6c-2.1,2.7-4.9,4.4-8.1,4.4c-3.1,0-6-1.7-8.1-4.4c-2.1-2.7-3.4-6.6-3.4-10.9c0-4.2,1.3-8.1,3.4-10.9
	c2.1-2.7,4.9-4.3,8.1-4.3c3.1,0,6,1.7,8.1,4.4c2.1,2.7,3.4,6.6,3.4,10.9C39.1,21,37.8,24.8,35.7,27.6z"/>
<path class="st1" d="M29.1,33.4c-0.5,0.1-1,0.1-1.5,0.1c-0.5,0-1-0.1-1.5-0.1c1,5.8,0.2,9.8-0.5,13.5c-0.3,1.9-0.7,3.8-0.7,5.8
	c0,0.7,0.2,1.5,0.8,1.9c1,0.9,2.9,0.9,3.9,0c0.6-0.5,0.8-1.2,0.8-1.9c-0.1-1.9-0.4-3.8-0.7-5.8C29,43.2,28.2,39.2,29.1,33.4z"/>
<path class="st1" d="M35.7,5.9c-2.1-2.7-4.9-4.3-8.1-4.3c-3.1,0-6,1.7-8.1,4.4c-2.1,2.7-3.4,6.6-3.4,10.9c0,4.2,1.3,8.1,3.4,10.9
	c2.1,2.7,4.9,4.4,8.1,4.4c3.1,0,6-1.7,8.1-4.4c2.1-2.7,3.4-6.6,3.4-10.9C39.1,12.5,37.8,8.7,35.7,5.9z M33.8,25.3
	c-1.5,2.3-3.7,3.7-6.2,3.7c-2.5,0-4.6-1.4-6.2-3.7C20,23.1,19,20,19,16.7c0-3.3,0.9-6.3,2.5-8.6c1.5-2.3,3.7-3.7,6.2-3.7
	c2.5,0,4.6,1.4,6.2,3.7c1.5,2.2,2.5,5.3,2.5,8.6C36.3,20,35.3,23.1,33.8,25.3z"/>
<path class="st0" d="M33.8,8.2c-1.5-2.3-3.7-3.7-6.2-3.7S23,5.9,21.5,8.2C20,10.4,19,13.4,19,16.7c0,3.3,0.9,6.3,2.5,8.6
	c1.5,2.3,3.7,3.7,6.2,3.7s4.6-1.4,6.2-3.7c1.5-2.2,2.5-5.3,2.5-8.6C36.3,13.4,35.3,10.4,33.8,8.2z M32.6,24.4c-1.3,1.9-3,3-4.9,3
	c-1.9,0-3.6-1.1-4.9-3c-1.3-1.9-2.2-4.7-2.2-7.7c0-3,0.8-5.8,2.2-7.7c1.3-1.9,3-3,4.9-3c1.9,0,3.6,1.1,4.9,3
	c1.3,1.9,2.2,4.7,2.2,7.7C34.7,19.8,33.9,22.5,32.6,24.4z"/>
<path class="st0" d="M30.8,19.3l-5.6,3.9l0.9,1.3l5.6-3.9L30.8,19.3z"/>
<path class="st0" d="M30.9,10.4l-8.8,6.1l0.9,1.3l8.8-6.1L30.9,10.4z"/>
</svg>
