<?xml version="1.0" encoding="utf-8"?>
<!-- Generator: Adobe Illustrator 25.0.0, SVG Export Plug-In . SVG Version: 6.00 Build 0)  -->
<svg version="1.1" id="Layer_1" xmlns="http://www.w3.org/2000/svg" xmlns:xlink="http://www.w3.org/1999/xlink" x="0px" y="0px"
	 viewBox="0 0 56.7 56.7" style="enable-background:new 0 0 56.7 56.7;" xml:space="preserve">
<style type="text/css">
	.st0{fill:#FEEA95;}
	.st1{fill:#FFFFFF;}
	.st2{fill:#14385F;}
</style>
<g>
	<path class="st0" d="M16.6,34.9c-4.5,4-9.1,8-13.6,12c-1.5,1.4-1.9,3.8-0.8,5.7c1.7,3.1,5.6,3.6,7.9,1c3.3-3.6,6.4-7.4,9.7-11
		c0.8-0.9,1.5-1.8,2.3-2.7c-1.8-1.8-3.5-3.5-5.1-5.2C16.8,34.8,16.6,34.8,16.6,34.9z M6.4,52.3c-1.1,0-2-0.8-2-1.9
		c0-1,0.8-1.9,1.9-1.9c1.1,0,1.9,0.8,2,1.9C8.3,51.4,7.4,52.3,6.4,52.3z"/>
	<path class="st0" d="M17.7,33.7c1.8,1.8,3.5,3.6,5.1,5.3c2-1.3,4.1-2.6,6.1-3.9c-2.4-2.4-4.9-4.9-7.4-7.4
		C20.3,29.8,19,31.9,17.7,33.7z"/>
	<path class="st1" d="M35.2,30.5c1.2,0,2.3,0,3.5,0c0-1.2,0-2.3,0-3.5c-1.2,0-2.3,0-3.5,0C35.2,28.2,35.2,29.4,35.2,30.5z"/>
	<path class="st1" d="M43.2,4.4c-1.2,0-2.3,0-3.5,0c0,1.2,0,2.3,0,3.5c1.2,0,2.3,0,3.5,0C43.2,6.7,43.2,5.6,43.2,4.4z"/>
	<path class="st1" d="M47.7,4.4c-1.2,0-2.3,0-3.5,0c0,1.2,0,2.3,0,3.5c1.2,0,2.3,0,3.5,0C47.7,6.7,47.7,5.6,47.7,4.4z"/>
	<path class="st1" d="M52.3,4.4c-1.2,0-2.3,0-3.5,0c0,1.2,0,2.3,0,3.5c1.2,0,2.4,0,3.5,0C52.3,6.7,52.3,5.6,52.3,4.4z"/>
	<path class="st1" d="M30.7,30.5c1.2,0,2.3,0,3.5,0c0-1.2,0-2.3,0-3.5c-1.2,0-2.3,0-3.5,0C30.7,28.2,30.7,29.3,30.7,30.5z"/>
	<path class="st1" d="M39.8,26c1.2,0,2.3,0,3.5,0c0-1.2,0-2.3,0-3.5c-1.2,0-2.3,0-3.5,0C39.8,23.7,39.8,24.8,39.8,26z"/>
	<path class="st1" d="M38.7,26c0-1.2,0-2.3,0-3.5c-1.2,0-2.3,0-3.5,0c0,1.2,0,2.3,0,3.5C36.4,26,37.6,26,38.7,26z"/>
	<path class="st1" d="M43.2,9c-1.2,0-2.3,0-3.5,0c0,1.2,0,2.3,0,3.5c1.2,0,2.3,0,3.5,0C43.2,11.2,43.2,10.1,43.2,9z"/>
	<path class="st1" d="M34.2,22.5c-1.2,0-2.3,0-3.5,0c0,1.2,0,2.3,0,3.5c1.2,0,2.3,0,3.5,0C34.2,24.8,34.2,23.7,34.2,22.5z"/>
	<path class="st1" d="M52,8.9c-1.1,0-2.1,0-3.2,0c0,1.2,0,2.4,0,3.5c1.2,0,2.3,0,3.6,0c0-1.1,0-2.1,0-3.2C52.3,9.1,52.2,8.9,52,8.9z
		"/>
	<path class="st1" d="M29.6,26c0-1.2,0-2.3,0-3.5c-1.2,0-2.3,0-3.5,0c0,1.2,0,2.3,0,3.5C27.4,26,28.5,26,29.6,26z"/>
	<path class="st1" d="M39.8,21.5c1.2,0,2.3,0,3.5,0c0-1.2,0-2.3,0-3.5c-1.2,0-2.3,0-3.5,0C39.8,19.1,39.8,20.3,39.8,21.5z"/>
	<path class="st1" d="M33.9,17c0.1,0,0.3-0.2,0.4-0.4c0.1-1,0-2,0-3.1c-1.2,0-2.4,0-3.6,0c0,1.2,0,2.3,0,3.5
		C31.8,17,32.9,17,33.9,17z"/>
	<path class="st1" d="M35.2,17c1.2,0,2.3,0,3.5,0c0-1.2,0-2.3,0-3.5c-1.2,0-2.4,0-3.5,0C35.2,14.7,35.2,15.8,35.2,17z"/>
	<path class="st1" d="M43.2,13.5c-1.2,0-2.3,0-3.5,0c0,1.2,0,2.3,0,3.5c1.2,0,2.3,0,3.5,0C43.2,15.7,43.2,14.6,43.2,13.5z"/>
	<path class="st1" d="M44.6,17c1,0.1,2,0,3.1,0c0-1.2,0-2.4,0-3.5c-1.2,0-2.3,0-3.5,0c0,1.1,0,2.1,0,3.2C44.2,16.8,44.5,17,44.6,17z
		"/>
	<path class="st1" d="M48.8,16.9c1.2,0,2.3,0,3.5,0c0-1.2,0-2.3,0-3.5c-1.2,0-2.4,0-3.5,0C48.8,14.7,48.8,15.8,48.8,16.9z"/>
	<path class="st1" d="M30.7,18c0,1.2,0,2.3,0,3.5c1.2,0,2.3,0,3.5,0c0-1.2,0-2.3,0-3.5C33,18,31.9,18,30.7,18z"/>
	<path class="st1" d="M29.7,17.9c-1.1,0-2.1,0-3.1,0c-0.2,0-0.4,0.2-0.4,0.3c-0.1,1.1,0,2.1,0,3.2c1.2,0,2.4,0,3.5,0
		C29.7,20.3,29.7,19.2,29.7,17.9z"/>
	<path class="st1" d="M38.7,17.9c-1.1,0-2.1,0-3.2,0c-0.1,0-0.3,0.2-0.3,0.4c0,1,0,2,0,3.1c1.2,0,2.3,0,3.5,0
		C38.7,20.3,38.7,19.1,38.7,17.9z"/>
	<path class="st1" d="M44.3,21.5c1.2,0,2.3,0,3.5,0c0-1.2,0-2.3,0-3.5c-1.2,0-2.3,0-3.5,0C44.3,19.2,44.3,20.3,44.3,21.5z"/>
	<path class="st1" d="M44.2,9.3c0,1,0,2,0,3.1c1.2,0,2.4,0,3.6,0c0-1.2,0-2.3,0-3.5c-1.1,0-2.1,0-3.2,0C44.5,8.9,44.2,9.2,44.2,9.3z
		"/>
	<path class="st1" d="M38.7,12.4c0-1.2,0-2.3,0-3.6c-1.1,0-2.1,0-3.1,0c-0.2,0-0.4,0.2-0.4,0.3c-0.1,1.1,0,2.1,0,3.2
		C36.4,12.4,37.6,12.4,38.7,12.4z"/>
	<path class="st1" d="M26.5,27c-0.1,0-0.4,0.2-0.4,0.4c-0.1,1,0,2,0,3.1c1.2,0,2.4,0,3.6,0c0-1.2,0-2.3,0-3.5
		C28.6,27,27.6,26.9,26.5,27z"/>
	<path class="st1" d="M25.2,22.5c-0.6,0-1.1,0-1.7,0c-0.2,0-0.4,0.1-0.5,0.3c-0.3,1.1-0.6,2.1-0.8,3.3c1,0,2,0,3,0
		C25.2,24.8,25.2,23.7,25.2,22.5z"/>
	<path class="st1" d="M34.2,31.6c-1.1,0-2.3,0-3.5,0c0,0.9,0,1.8,0,2.5c0,0.1,0.1,0.2,0.1,0.5c0.7-0.2,1.3-0.4,1.9-0.6
		c1.7-0.5,1.7-0.5,1.6-2.3C34.2,31.7,34.2,31.6,34.2,31.6z"/>
	<path class="st1" d="M53.4,9c-0.1,0.1-0.1,0.2-0.1,0.3c0,1,0,2,0,3.1c0.6,0,1.1,0,1.8,0c0-1,0.1-1.9,0-2.8C55,9,53.9,8.6,53.4,9z"
		/>
	<path class="st1" d="M47,1.6c-0.7,0-1.5-0.1-2.2,0c-0.2,0-0.5,0.3-0.6,0.5c-0.1,0.3-0.1,0.6,0,0.8c0.1,0.2,0.3,0.5,0.4,0.5
		c1,0.1,2,0,3.2,0c0-0.3-0.1-0.7,0-1C47.9,1.8,47.6,1.6,47,1.6z"/>
	<path class="st1" d="M48.8,20.8c1-0.9,1.9-1.9,2.8-2.8c-1,0-1.9,0-2.8,0C48.8,19,48.8,20,48.8,20.8z"/>
	<path class="st1" d="M44.3,25.3c0.9-0.9,1.9-1.8,2.9-2.8c-1,0-1.9,0-2.9,0C44.3,23.5,44.3,24.5,44.3,25.3z"/>
	<path class="st1" d="M39.8,29.7c0.9-0.8,1.9-1.8,2.8-2.7c-1,0-1.9,0-2.8,0C39.8,28,39.8,29,39.8,29.7z"/>
	<path class="st1" d="M34.2,9.7c-0.9,0.9-1.8,1.8-2.7,2.7c0.8,0,1.8,0,2.7,0C34.2,11.4,34.2,10.5,34.2,9.7z"/>
	<path class="st1" d="M29.6,14.3c-0.9,0.9-1.9,1.8-2.8,2.7c0.8,0,1.8,0,2.8,0C29.6,16,29.6,15,29.6,14.3z"/>
	<path class="st1" d="M38.7,5.1c-0.9,1-1.9,1.9-2.8,2.8c0.9,0,1.9,0,2.8,0C38.7,6.9,38.7,6,38.7,5.1z"/>
	<path class="st1" d="M25.2,27c-0.9,0-1.8,0-2.4,0c0.8,0.8,1.7,1.7,2.4,2.5C25.2,28.7,25.2,27.9,25.2,27z"/>
	<path class="st1" d="M29.7,34.1c0-0.7,0-1.6,0-2.5c-0.9,0-1.8,0-2.5,0C28,32.4,28.9,33.2,29.7,34.1z"/>
	<path class="st1" d="M35.2,33.4c1.2-0.2,2.1-0.8,3.1-1.8c-1.1,0-2.1,0-3.1,0C35.2,32.2,35.2,32.8,35.2,33.4z"/>
	<path class="st1" d="M25.2,18.5c-1,0.8-1.6,1.8-1.8,3.1c0.6,0,1.2,0,1.8,0C25.2,20.5,25.2,19.5,25.2,18.5z"/>
	<path class="st1" d="M53.3,16.1c0.1,0,0.2,0.1,0.2,0.1c0.5-0.9,0.9-1.8,1.4-2.8c-0.6,0-1.1,0-1.6,0C53.3,14.4,53.3,15.3,53.3,16.1z
		"/>
	<path class="st1" d="M43.3,3.4c0-0.5,0-0.9,0-1.5c-1,0.5-1.9,0.9-2.8,1.4c0.1,0.1,0.1,0.1,0.1,0.2C41.5,3.4,42.4,3.4,43.3,3.4z"/>
	<path class="st1" d="M53.5,5.4c-0.1,0.1-0.1,0.1-0.2,0.1c0,0.8,0,1.6,0,2.4c0.5,0,0.9,0,1.5,0C54.3,7,53.9,6.2,53.5,5.4z"/>
	<path class="st1" d="M51.3,3.2c-0.8-0.4-1.6-0.8-2.5-1.2c0,0.6,0,1,0,1.5c0.8,0,1.6,0,2.4,0C51.3,3.3,51.3,3.2,51.3,3.2z"/>
	<path class="st1" d="M6.3,48.4c-1,0-1.9,0.9-1.9,1.9c0,1.1,0.8,1.9,2,1.9c1,0,1.9-0.9,1.9-1.9C8.3,49.3,7.4,48.4,6.3,48.4z
		 M6.3,51.3c-0.5-0.1-0.8-0.3-0.8-0.9c0-0.5,0.4-1,0.9-0.9c0.5,0.1,0.8,0.3,0.9,0.8C7.3,50.9,6.9,51.3,6.3,51.3z"/>
	<path class="st1" d="M6.4,49.5c-0.5-0.1-1,0.4-0.9,0.9c0,0.6,0.3,0.8,0.8,0.9c0.5,0.1,1-0.4,1-1.1C7.3,49.8,6.9,49.5,6.4,49.5z"/>
	<path class="st2" d="M56,9.2c-0.8-4-3.1-6.8-7-8.1c-3.9-1.2-7.5-0.4-10.4,2.5c-4.9,4.8-9.7,9.7-14.5,14.5c-1,1-1.6,2.2-1.9,3.6
		c-0.5,2.8-1.4,5.4-3,7.9c-1,1.5-1.9,3.2-3.2,4.4c-4.4,4-8.9,7.9-13.4,11.8c-2.7,2.3-2.9,6.2-0.5,8.6c2.5,2.5,6.3,2.4,8.7-0.3
		c3.1-3.4,6-6.9,9.1-10.3c1.6-1.8,3.1-3.6,5.1-5c3.2-2.1,6.5-3.7,10.2-4.4c1.2-0.2,2.3-0.8,3.1-1.6c5-4.9,10-9.8,14.8-14.8
		c1.9-1.9,2.8-4.4,2.9-7.3C56.1,10.3,56.1,9.7,56,9.2z M48.8,1.9c0.8,0.5,1.7,0.8,2.5,1.2c0,0.1-0.1,0.2-0.1,0.2c-0.8,0-1.6,0-2.4,0
		C48.8,3,48.8,2.6,48.8,1.9z M43.3,1.8c0,0.6,0,1.1,0,1.5c-0.9,0-1.8,0-2.7,0c-0.1-0.1-0.1-0.1-0.1-0.2C41.4,2.7,42.3,2.3,43.3,1.8z
		 M39.8,4.4c1.1,0,2.3,0,3.5,0c0,1.1,0,2.3,0,3.5c-1.2,0-2.3,0-3.5,0C39.8,6.7,39.8,5.6,39.8,4.4z M39.8,9c1.2,0,2.3,0,3.5,0
		c0,1.2,0,2.3,0,3.5c-1.1,0-2.3,0-3.5,0C39.8,11.3,39.8,10.1,39.8,9z M39.8,13.5c1.2,0,2.3,0,3.5,0c0,1.1,0,2.3,0,3.5
		c-1.1,0-2.3,0-3.5,0C39.8,15.8,39.8,14.7,39.8,13.5z M38.7,5.1c0,0.8,0,1.8,0,2.8c-1,0-1.9,0-2.8,0C36.8,7,37.7,6.1,38.7,5.1z
		 M34.2,9.7c0,0.8,0,1.7,0,2.7c-1,0-1.9,0-2.7,0C32.4,11.6,33.3,10.6,34.2,9.7z M30.7,13.5c1.2,0,2.3,0,3.6,0c0,1.1,0,2.1,0,3.1
		c0,0.2-0.2,0.4-0.4,0.4c-1,0.1-2,0-3.2,0C30.7,15.8,30.7,14.7,30.7,13.5z M30.7,26c0-1.2,0-2.3,0-3.5c1.1,0,2.3,0,3.5,0
		c0,1.1,0,2.3,0,3.5C33,26,31.9,26,30.7,26z M34.2,27c0,1.1,0,2.3,0,3.5c-1.1,0-2.3,0-3.5,0c0-1.2,0-2.3,0-3.5
		C31.9,27,33,27,34.2,27z M30.7,21.5c0-1.2,0-2.3,0-3.5c1.1,0,2.3,0,3.5,0c0,1.1,0,2.3,0,3.5C33,21.5,31.9,21.5,30.7,21.5z
		 M29.7,14.3c0,0.8,0,1.7,0,2.7c-1,0-1.9,0-2.8,0C27.8,16.1,28.7,15.1,29.7,14.3z M26.2,18.2c0-0.1,0.3-0.3,0.4-0.3c1,0,2,0,3.1,0
		c0,1.2,0,2.4,0,3.5c-1.2,0-2.3,0-3.5,0C26.1,20.4,26.1,19.3,26.2,18.2z M29.7,22.5c0,1.2,0,2.3,0,3.5c-1.2,0-2.3,0-3.5,0
		c0-1.2,0-2.3,0-3.5C27.4,22.5,28.5,22.5,29.7,22.5z M25.2,18.5c0,1.1,0,2,0,3.1c-0.7,0-1.2,0-1.8,0C23.5,20.3,24.2,19.3,25.2,18.5z
		 M23,22.8c0.1-0.1,0.3-0.2,0.5-0.3c0.5-0.1,1.1,0,1.7,0c0,1.2,0,2.4,0,3.5c-1,0-2,0-3,0C22.5,24.9,22.7,23.8,23,22.8z M25.2,27
		c0,0.9,0,1.8,0,2.5c-0.8-0.8-1.6-1.6-2.4-2.5C23.4,27,24.3,27,25.2,27z M19.8,42.5c-3.2,3.7-6.4,7.4-9.7,11c-2.3,2.6-6.3,2.1-7.9-1
		c-1-1.8-0.7-4.3,0.8-5.7c4.5-4,9.1-8,13.6-12c0.1-0.1,0.2-0.1,0.3-0.2c1.8,1.8,3.4,3.5,5.1,5.2C21.3,40.7,20.5,41.6,19.8,42.5z
		 M22.9,39c-1.7-1.8-3.4-3.5-5.1-5.3c1.2-1.9,2.5-4,3.8-6c2.5,2.5,4.9,4.9,7.4,7.4C26.9,36.4,24.9,37.7,22.9,39z M29.7,34.1
		c-0.8-0.8-1.7-1.6-2.5-2.5c0.7,0,1.6,0,2.5,0C29.7,32.5,29.7,33.3,29.7,34.1z M29.7,30.5c-1.2,0-2.3,0-3.6,0c0-1.1,0-2.1,0-3.1
		c0-0.1,0.2-0.4,0.4-0.4c1-0.1,2,0,3.1,0C29.7,28.2,29.7,29.3,29.7,30.5z M32.6,34c-0.6,0.2-1.2,0.4-1.9,0.6c0-0.2-0.1-0.3-0.1-0.5
		c0-0.8,0-1.6,0-2.5c1.2,0,2.3,0,3.5,0c0.1,0.1,0.1,0.1,0.1,0.1C34.4,33.5,34.4,33.5,32.6,34z M35.2,9.3c0-0.1,0.3-0.3,0.4-0.3
		c1-0.1,2,0,3.1,0c0,1.2,0,2.4,0,3.6c-1.2,0-2.3,0-3.5,0C35.2,11.4,35.2,10.3,35.2,9.3z M35.2,18.3c0-0.1,0.2-0.4,0.3-0.4
		c1.1-0.1,2.1,0,3.2,0c0,1.2,0,2.3,0,3.5c-1.2,0-2.3,0-3.5,0C35.2,20.4,35.2,19.4,35.2,18.3z M38.7,22.5c0,1.1,0,2.3,0,3.5
		c-1.1,0-2.3,0-3.5,0c0-1.1,0-2.3,0-3.5C36.4,22.5,37.5,22.5,38.7,22.5z M35.2,33.4c0-0.6,0-1.2,0-1.8c1,0,1.9,0,3.1,0
		C37.4,32.5,36.4,33.2,35.2,33.4z M38.7,30.5c-1.2,0-2.3,0-3.5,0c0-1.1,0-2.3,0-3.5c1.1,0,2.3,0,3.5,0
		C38.7,28.2,38.7,29.3,38.7,30.5z M38.7,17c-1.2,0-2.3,0-3.5,0c0-1.2,0-2.3,0-3.5c1.1,0,2.3,0,3.5,0C38.7,14.7,38.7,15.8,38.7,17z
		 M39.8,29.7c0-0.7,0-1.6,0-2.7c1,0,1.9,0,2.8,0C41.6,28,40.6,28.9,39.8,29.7z M43.2,26c-1.2,0-2.3,0-3.5,0c0-1.2,0-2.3,0-3.5
		c1.1,0,2.3,0,3.5,0C43.2,23.7,43.2,24.8,43.2,26z M43.3,21.5c-1.1,0-2.3,0-3.5,0c0-1.1,0-2.3,0-3.5c1.2,0,2.3,0,3.5,0
		C43.3,19.2,43.3,20.3,43.3,21.5z M44.2,13.5c1.2,0,2.3,0,3.5,0c0,1.1,0,2.3,0,3.5c-1.1,0-2.1,0-3.1,0c-0.2,0-0.4-0.2-0.4-0.3
		C44.2,15.6,44.2,14.6,44.2,13.5z M44.3,25.3c0-0.8,0-1.8,0-2.8c1,0,1.9,0,2.9,0C46.2,23.5,45.2,24.4,44.3,25.3z M47.8,21.5
		c-1.1,0-2.3,0-3.5,0c0-1.1,0-2.3,0-3.5c1.2,0,2.3,0,3.5,0C47.8,19.1,47.8,20.3,47.8,21.5z M47.8,12.4c-1.2,0-2.3,0-3.6,0
		c0-1.1,0-2.1,0-3.1c0-0.1,0.2-0.4,0.3-0.4c1.1-0.1,2.1,0,3.2,0C47.8,10.1,47.8,11.2,47.8,12.4z M44.2,7.9c0-1.1,0-2.3,0-3.5
		c1.2,0,2.3,0,3.5,0c0,1.1,0,2.3,0,3.5C46.6,7.9,45.5,7.9,44.2,7.9z M47.8,2.5c-0.1,0.3,0,0.6,0,1c-1.1,0-2.1,0-3.2,0
		c-0.2,0-0.3-0.3-0.4-0.5c-0.1-0.3-0.1-0.6,0-0.8c0.1-0.2,0.3-0.5,0.6-0.5c0.7-0.1,1.5-0.1,2.2,0C47.6,1.6,47.9,1.8,47.8,2.5z
		 M48.8,4.4c1.2,0,2.3,0,3.5,0c0,1.1,0,2.3,0,3.5c-1.1,0-2.3,0-3.5,0C48.8,6.7,48.8,5.6,48.8,4.4z M48.8,20.8c0-0.8,0-1.8,0-2.8
		c0.9,0,1.9,0,2.8,0C50.7,19,49.8,19.9,48.8,20.8z M52.3,16.9c-1.2,0-2.3,0-3.5,0c0-1.1,0-2.3,0-3.5c1.1,0,2.3,0,3.5,0
		C52.3,14.7,52.3,15.7,52.3,16.9z M48.8,12.4c0-1.1,0-2.3,0-3.5c1.1,0,2.1,0,3.2,0c0.1,0,0.3,0.2,0.3,0.3c0,1.1,0,2.1,0,3.2
		C51.1,12.4,50,12.4,48.8,12.4z M53.3,5.4c0.1-0.1,0.1-0.1,0.2-0.1c0.4,0.8,0.8,1.6,1.3,2.5c-0.6,0-1,0-1.5,0
		C53.3,7.1,53.3,6.3,53.3,5.4z M53.5,16.2c-0.1,0-0.2-0.1-0.2-0.1c0-0.8,0-1.8,0-2.7c0.5,0,1,0,1.6,0C54.4,14.5,54,15.3,53.5,16.2z
		 M55.1,12.4c-0.7,0-1.2,0-1.8,0c0-1.1,0-2.1,0-3.1c0-0.1,0.1-0.3,0.1-0.3c0.5-0.4,1.6,0,1.7,0.6C55.1,10.5,55.1,11.4,55.1,12.4z"/>
	<path class="st2" d="M6.4,56.5c-1.6,0-3.2-0.7-4.4-1.9c-1.2-1.2-1.8-2.8-1.7-4.4c0.1-1.8,0.9-3.5,2.3-4.6c1.1-1,2.3-2,3.5-3.1
		c3.3-2.8,6.7-5.8,9.9-8.8c1-0.9,1.8-2.1,2.5-3.3c0.2-0.3,0.4-0.6,0.6-0.9c1.5-2.2,2.4-4.8,2.9-7.7c0.2-1.5,0.9-2.8,1.9-3.8
		c1.5-1.5,3.1-3.1,4.6-4.6c3.2-3.3,6.6-6.7,9.9-10c3.1-3,6.7-3.9,10.7-2.6c4,1.3,6.4,4.1,7.2,8.3c0.1,0.4,0.1,0.8,0.1,1.1
		c0,0.1,0,0.2,0,0.3c0,3.1-1,5.6-2.9,7.6c-4.8,4.8-9.6,9.7-14.3,14.4l-0.5,0.5c-0.9,0.9-2,1.5-3.3,1.7c-3.5,0.6-6.7,1.9-10.1,4.3
		c-1.8,1.2-3.2,2.8-4.6,4.4L20.2,44c-1.6,1.8-3.2,3.6-4.8,5.4c-1.4,1.6-2.8,3.2-4.3,4.9c-1.2,1.4-2.8,2.1-4.6,2.2
		C6.5,56.5,6.5,56.5,6.4,56.5z M45.6,0.9c-2.5,0-4.8,1-6.7,3c-3.3,3.2-6.7,6.6-10,9.9c-1.5,1.5-3.1,3.1-4.6,4.6
		c-1,1-1.5,2.1-1.8,3.5c-0.5,3-1.5,5.7-3.1,8c-0.2,0.3-0.4,0.6-0.6,0.9c-0.8,1.2-1.6,2.5-2.7,3.5c-3.2,3-6.6,5.9-9.9,8.8
		C5.3,44,4.1,45,3,46c-1.2,1.1-2,2.6-2,4.2c-0.1,1.5,0.5,2.9,1.5,4C3.6,55.3,5,56,6.6,55.9c1.6-0.1,3-0.7,4.1-2
		c1.4-1.6,2.8-3.2,4.3-4.9c1.6-1.8,3.2-3.6,4.8-5.4l0.5-0.6c1.4-1.6,2.8-3.2,4.7-4.5c3.6-2.4,6.8-3.8,10.4-4.4
		c1.1-0.2,2.1-0.7,2.9-1.5l0.5-0.5c4.7-4.7,9.6-9.6,14.4-14.4c1.9-1.9,2.8-4.2,2.8-7.1c0-0.1,0-0.2,0-0.3c0-0.3,0-0.7-0.1-1
		c-0.9-4.1-3.2-6.7-6.9-8C47.8,1,46.7,0.9,45.6,0.9z M6.4,55.5c-0.2,0-0.4,0-0.6-0.1c-1.7-0.2-3.2-1.2-4-2.8c-1.1-2-0.7-4.6,0.9-6.1
		c3.3-2.9,6.7-5.9,10-8.8l3.6-3.2c0.1-0.1,0.1-0.1,0.2-0.2l0.3-0.2l5.5,5.5l-1,1.1c-0.5,0.6-1,1.2-1.5,1.8l-2.7,3.2
		c-2.3,2.6-4.6,5.3-7,7.9C9.2,54.9,7.9,55.5,6.4,55.5z M16.8,35.1C16.8,35.1,16.8,35.1,16.8,35.1l-3.7,3.2c-3.3,2.9-6.7,5.8-10,8.8
		c-1.4,1.2-1.8,3.6-0.8,5.3c0.7,1.4,2,2.3,3.5,2.4c1.4,0.2,2.9-0.4,3.9-1.5c2.3-2.6,4.7-5.3,6.9-7.9l2.8-3.2c0.5-0.6,1-1.2,1.5-1.8
		l0.6-0.7L16.8,35.1z M22.9,39.4l-5.5-5.7l4.2-6.5l7.9,7.9L22.9,39.4z M18.1,33.7l4.8,4.9l5.5-3.5l-6.8-6.9L18.1,33.7z M30.5,35
		l-0.1-0.5c0-0.1-0.1-0.2-0.1-0.3c0-0.6,0-1.2,0-1.9v-1h4l0.1,0.2c0.1,0.1,0.1,0.2,0.1,0.2c0.2,1.9,0.1,2.1-1.8,2.6L32.6,34l0.1,0.3
		c-0.4,0.1-0.8,0.2-1.3,0.4L30.5,35z M31,31.9v0.3c0,0.6,0,1.2,0,1.9c0,0,0,0,0,0.1l0.3-0.1c0.5-0.1,0.8-0.3,1.3-0.4
		c1.4-0.4,1.5-0.4,1.4-1.8L31,31.9L31,31.9z M30,34.8l-3.6-3.5H30V34.8z M27.9,31.9l1.5,1.4v-1.4H27.9z M34.9,33.7v-2.5H39l-0.5,0.5
		c-1,1.1-2,1.7-3.2,1.9L34.9,33.7z M35.5,31.9V33c0.7-0.2,1.4-0.6,2-1.1H35.5z M39,30.8H35v-4.1H39V30.8z M35.5,30.2h2.9v-2.9h-2.9
		V30.2z M30,30.8h-4.1v-1.1c0-0.8,0-1.6,0-2.4c0-0.3,0.4-0.7,0.7-0.7c0.7,0,1.5,0,2.3,0H30V30.8z M26.4,30.2h2.9v-2.9h-0.5
		c-0.8,0-1.5,0-2.3,0l-0.1,0.1c0,0.7,0,1.5,0,2.3V30.2z M34.5,30.8h-4.1v-4.1h4.1V30.8z M31.1,30.2h2.9v-2.8h-2.9V30.2z M39.4,30.4
		v-3.7h4L39.4,30.4z M40.1,27.3V29l1.8-1.6H40.1z M25.5,30.2L22,26.7h3.5V30.2z M23.4,27.3l1.4,1.4v-1.4H23.4z M43.6,26.3h-4.1v-4.1
		h4.1V26.3z M40.1,25.7h2.8v-2.9h-2.8V25.7z M30,26.3h-4.1v-4.1H30V26.3z M26.5,25.7h2.9v-2.9h-2.9V25.7z M34.5,26.3h-4.1v-4.1h4.1
		V26.3z M31.1,25.7h2.9v-2.9h-2.9V25.7z M25.5,26.3h-3.7l0.3-1.1c0.2-0.8,0.5-1.8,0.7-2.6c0.1-0.3,0.5-0.5,0.7-0.5
		c0.4,0,0.8,0,1.2,0h0.8V26.3z M22.6,25.7h2.3v-2.9h-0.2c-0.4,0-0.8,0-1.1,0c-0.1,0-0.2,0.1-0.2,0.1c-0.2,0.8-0.5,1.7-0.7,2.5
		L22.6,25.7z M39,26.3h-4.1v-4.1H39V26.3z M35.5,25.7h2.9v-2.9h-2.9V25.7z M44,26v-3.8h3.9L44,26z M44.6,22.8v1.8l1.8-1.8H44.6z
		 M25.5,21.8h-2.5l0.1-0.3c0.2-1.2,0.8-2.3,1.9-3.2l0.5-0.5L25.5,21.8z M23.7,21.2h1.1v-2C24.3,19.8,23.9,20.4,23.7,21.2z
		 M34.5,21.8h-4.1v-4.1h4.1V21.8z M31.1,21.2h2.8v-2.9h-2.8V21.2z M39,21.8h-4.1v-1.1c0-0.8,0-1.6,0-2.4c0-0.3,0.3-0.7,0.6-0.7
		c0.8,0,1.6,0,2.5,0h1V21.8z M35.5,21.2h2.9v-2.9H38c-0.8,0-1.6,0-2.4,0c0,0-0.1,0.1-0.1,0.1c0,0.8,0,1.5,0,2.3L35.5,21.2z M30,21.8
		h-4.1v-1c0-0.8,0-1.7,0-2.5c0-0.3,0.5-0.6,0.7-0.6c0.7,0,1.5,0,2.3,0h1.1L30,21.8z M26.5,21.2h2.9v-2.9h-0.5c-0.8,0-1.5,0-2.3,0
		c0,0-0.1,0.1-0.1,0.1c0,0.8,0,1.6,0,2.4L26.5,21.2z M43.6,21.7h-4.1v-4.1h4.1V21.7z M40.1,21.1H43v-2.8h-2.9V21.1z M48,21.7H44
		v-4.1H48V21.7z M44.6,21.1h2.8v-2.8h-2.8V21.1z M48.5,21.6v-3.8h3.9L48.5,21.6z M49.1,18.3v1.8l1.8-1.8H49.1z M46.2,17.3
		c-0.5,0-1.1,0-1.6,0c-0.3,0-0.7-0.3-0.7-0.7c0-0.8,0-1.6,0-2.4v-1.1h4.1v4.1H47C46.7,17.3,46.4,17.3,46.2,17.3z M44.6,16.6l0.1,0.1
		c0.7,0,1.5,0,2.3,0h0.5v-2.9h-2.9v0.5C44.5,15.1,44.5,15.9,44.6,16.6C44.5,16.6,44.6,16.6,44.6,16.6z M32.3,17.3
		c-0.2,0-0.5,0-0.7,0h-1.1v-4.1h4.1v1.1c0,0.8,0,1.6,0,2.3c0,0.3-0.3,0.7-0.7,0.7C33.3,17.3,32.8,17.3,32.3,17.3z M31,16.7h0.5
		c0.8,0,1.6,0,2.4,0l0.1-0.1c0-0.7,0-1.5,0-2.3v-0.5H31L31,16.7L31,16.7z M30,17.3h-3.9l3.8-3.7L30,17.3L30,17.3z M27.6,16.6h1.8
		v-1.7L27.6,16.6z M39,17.3h-4.1v-4.1H39V17.3z M35.5,16.6h2.9v-2.8h-2.9V16.6z M43.6,17.3h-4.1v-4.1h4.1V17.3z M40.1,16.6h2.9v-2.9
		h-2.9V16.6z M52.6,17.3h-4.1v-4.1h4.1V17.3z M49.1,16.6H52v-2.8h-2.9V16.6z M53.7,16.6l-0.6-0.2L53,16.2v-3h2.4L53.7,16.6z
		 M53.6,13.8v1.6l0.8-1.6H53.6z M34.5,12.7h-3.8L34.5,9V12.7z M32.3,12.1h1.7v-1.7L32.3,12.1z M39,12.7h-4.1v-1c0-0.8,0-1.6,0-2.4
		c0-0.3,0.5-0.6,0.7-0.7c0.7,0,1.5,0,2.3,0H39V12.7z M35.5,12.1h2.9V9.2H38c-0.8,0-1.5,0-2.3,0c0,0-0.1,0.1-0.1,0.1
		c0,0.8,0,1.6,0,2.4L35.5,12.1z M52.7,12.7h-4.1V8.6h1c0.8,0,1.7,0,2.5,0c0.3,0,0.6,0.3,0.6,0.6c0,0.8,0,1.6,0,2.4V12.7z M49.1,12.1
		H52v-0.5c0-0.8,0-1.6,0-2.4c0,0.1-0.1,0-0.1-0.1c-0.7,0-1.6,0-2.4,0h-0.4L49.1,12.1z M55.4,12.7H53v-1.1c0-0.8,0-1.6,0-2.4
		c0-0.2,0.1-0.4,0.2-0.6c0.4-0.3,1-0.2,1.4-0.1c0.5,0.2,0.7,0.6,0.8,0.9c0.1,0.7,0,1.3,0,2c0,0.3,0,0.6,0,0.8V12.7z M53.6,12.1h1.2
		c0-0.2,0-0.4,0-0.6c0-0.7,0-1.3,0-1.9c0-0.1-0.2-0.3-0.4-0.4c-0.3-0.1-0.6-0.2-0.8,0c0,0,0,0.1,0,0.1c0,0.8,0,1.6,0,2.4V12.1z
		 M48.1,12.7H44v-1.1c0-0.8,0-1.6,0-2.4c0-0.3,0.3-0.7,0.6-0.7c0.8,0,1.6,0,2.5,0h1.1L48.1,12.7z M44.5,12.1h2.9V9.2H47
		c-0.8,0-1.6,0-2.4,0c0.1,0,0,0.1,0,0.1c0,0.7,0,1.5,0,2.3L44.5,12.1z M43.6,12.7h-4.1V8.7h4.1V12.7z M40.1,12.1h2.9V9.2h-2.9V12.1z
		 M43.6,8.2h-4.1V4.1h4.1V8.2z M40.1,7.6h2.8V4.8h-2.8V7.6z M39,8.2h-3.8L39,4.4V8.2z M36.6,7.6h1.8V5.8L36.6,7.6z M48.1,8.2H44V4.1
		h4.1V8.2z M44.6,7.6h2.9V4.8h-2.9V7.6z M55.3,8.2H53V5.3L53.6,5L55.3,8.2z M53.6,7.6h0.7l-0.7-1.3V7.6z M52.6,8.2h-4.1V4.1h4.1V8.2
		z M49.1,7.6H52V4.8h-2.9V7.6z M46.2,3.7c-0.6,0-1.1,0-1.6,0c-0.3,0-0.6-0.4-0.7-0.7c-0.1-0.2-0.1-0.7,0-1.1
		c0.1-0.3,0.5-0.7,0.8-0.7c0.7-0.1,1.3-0.1,2,0H47c0.5,0,0.7,0.1,1,0.3c0.2,0.2,0.2,0.5,0.2,0.9c-0.1,0.2,0,0.3,0,0.5
		c0,0.1,0,0.2,0,0.3v0.3H47C46.7,3.7,46.5,3.7,46.2,3.7z M45.8,1.9c-0.3,0-0.7,0-1,0.1c-0.1,0-0.2,0.2-0.3,0.3
		c-0.1,0.2-0.1,0.5,0,0.7c0,0.1,0.1,0.2,0.2,0.2c0.7,0,1.5,0,2.3,0h0.5c0-0.2,0-0.5,0-0.7c0-0.1,0.1-0.3-0.1-0.4
		C47.4,2,47.2,1.9,47,1.9h-0.3C46.4,1.9,46.2,1.9,45.8,1.9z M51.4,3.7h-2.9V1.4L51.7,3L51.4,3.7z M49.1,3.1h1.3l-1.3-0.6V3.1z
		 M43.6,3.7h-3.2l-0.3-0.6l3.5-1.7L43.6,3.7z M41.4,3.1h1.5V2.3L41.4,3.1z"/>
</g>
</svg>
