<?xml version="1.0" encoding="utf-8"?>
<!-- Generator: Adobe Illustrator 25.0.0, SVG Export Plug-In . SVG Version: 6.00 Build 0)  -->
<svg version="1.1" id="Layer_1" xmlns="http://www.w3.org/2000/svg" xmlns:xlink="http://www.w3.org/1999/xlink" x="0px" y="0px"
	 viewBox="0 0 4430.9 2093" style="enable-background:new 0 0 4430.9 2093;" xml:space="preserve">
<style type="text/css">
	.st0{fill:#002F6C;}
</style>
<g>
	<path class="st0" d="M4430.9,88.3c-21.4-10.7-42.6-16.1-69.8-9.2c-62.1,15.6-104.9,93.1-173.5,81.5c-66-11.2-118.3-91-188.7-85.8
		c-59.6,4.5-87.5,66.3-142.6,81.3c-63.8,17.4-117.4-45.5-177.9-70.7v0.1c-18.1-7.4-36.8-10.4-59.7-4.6
		c-62.1,15.6-104.9,93.1-173.5,81.5c-66-11.2-118.3-91-188.7-85.8c-59.6,4.5-87.5,66.3-142.6,81.3c-63.8,17.4-117.4-45.5-177.9-70.7
		v0.2c-19.6-8.9-39.4-12.9-64.3-6.6c-62.1,15.6-104.9,93.1-173.5,81.5c-66-11.2-118.3-91-188.7-85.8c-59.6,4.5-87.5,66.3-142.6,81.3
		c-63.8,17.4-117.4-45.5-177.9-70.7v0.2c-18-7.3-36.5-10.1-59.2-4.4c-62.1,15.6-104.9,93.1-173.5,81.5c-66-11.2-118.3-91-188.7-85.8
		c-59.6,4.5-87.5,66.3-142.6,81.3c-63.8,17.4-117.4-45.5-177.9-70.7v0.2c-19.6-8.9-39.4-12.9-64.3-6.6
		c-62.1,15.6-104.9,93.1-173.5,81.5c-66-11.2-118.3-91-188.7-85.8C961,83,933.1,144.8,878,159.8c-62,16.9-114.4-42-172.8-68.4
		c-21-10.3-41.9-15.3-68.6-8.6c-62.1,15.6-104.9,93.1-173.5,81.5c-66-11.2-118.3-91-188.7-85.8c-59.6,4.5-87.5,66.3-142.6,81.3
		C84.5,173,42.9,142,0,114.8V2093h4430.9V88.3z"/>
	<path class="st0" d="M4363.2,3.9c-32.4,5.6-57.9,25.8-82.6,45.4c-29.2,23.2-54.5,43.2-87.3,37.6c-29.9-3.5-55.6-22.1-82.8-41.7
		c-32.8-23.6-66.6-48.1-109.4-44.9c-37,2.8-64.3,24.5-90.6,45.6c-20.4,16.1-39.5,31.4-61,37.1c-36.7,7.1-70-14.3-105.4-37
		c-18-11.5-36.3-23.3-55.8-31.8l0,0c-0.2-0.1-0.3-0.1-0.5-0.2c-0.6-0.3-1.2-0.5-1.8-0.8c-0.8-0.4-1.7-0.7-2.5-1.1
		c-0.8-0.3-1.5-0.6-2.3-0.9c-0.2-0.1-0.4-0.1-0.6-0.2c-0.8-0.3-1.5-0.6-2.3-0.9v0.1c-17.1-6.1-35.7-8.6-57.6-4.4
		c-32.4,5.6-57.9,25.8-82.6,45.4c-29.2,23.2-54.5,43.2-87.3,37.6c-29.9-3.5-55.6-22.1-82.8-41.7c-32.8-23.6-66.6-48.1-109.4-44.9
		c-37,2.8-64.3,24.5-90.6,45.6c-20.3,16.2-39.4,31.5-60.9,37.1c-36.7,7.1-70-14.3-105.4-37c-20.2-13-40.8-26.2-63.1-34.9
		c-19.1-8.1-39.8-12.1-64.9-7.3c-32.4,5.6-57.9,25.8-82.6,45.4c-29.2,23.2-54.5,43.2-87.3,37.6c-29.9-3.5-55.6-22.1-82.8-41.7
		c-32.8-23.6-66.6-48.1-109.4-44.9c-37,2.8-64.3,24.5-90.6,45.6c-20.3,16.2-39.4,31.5-60.9,37.1c-36.7,7.1-70-14.3-105.4-37
		c-21-13.5-42.5-27.3-65.8-35.9v0.2c-17-6-35.4-8.4-57.1-4.3c-32.4,5.6-57.9,25.8-82.6,45.4c-29.2,23.2-54.5,43.2-87.3,37.6
		c-29.9-3.5-55.6-22.1-82.8-41.7c-32.8-23.6-66.6-48.1-109.4-44.9c-37,2.8-64.3,24.5-90.6,45.6c-20.3,16.2-39.4,31.5-60.9,37.1
		c-36.7,7.1-70-14.3-105.4-37c-20.2-13-40.8-26.2-63.1-34.9c-19.1-8.1-39.8-12.1-64.9-7.3c-32.4,5.6-57.9,25.8-82.6,45.4
		c-29.2,23.2-54.5,43.2-87.3,37.6c-29.9-3.5-55.6-22.1-82.8-41.7c-32.8-23.6-66.6-48.1-109.4-44.9c-37,2.8-64.3,24.5-90.6,45.6
		c-20.4,16.3-39.5,31.6-61,37.3c-36.7,7.1-70-14.3-105.4-37c-19.1-12.3-38.6-24.8-59.6-33.5v-0.3c-19.8-8.8-41.3-13.4-67.6-8.4
		c-32.4,5.6-57.9,25.8-82.6,45.4c-29.2,23.2-54.5,43.2-87.3,37.6c-29.9-3.5-55.6-22.1-82.8-41.7c-32.7-23.6-66.5-48-109.3-44.8
		c-37,2.8-64.3,24.5-90.6,45.6C165.6,66,146.4,81.3,125,87C88.3,94.1,55,72.7,19.6,50c-6.5-4.2-13-8.3-19.6-12.4v34.2
		c1.3,0.8,2.6,1.7,4,2.5c38.6,24.8,78.5,50.4,127.4,40.8c28.3-7.4,50.7-25.4,72.5-42.7c24-19.2,46.7-37.2,74.8-39.4
		c32.2-2.4,60.5,18,90.4,39.5c29,20.9,59,42.5,95.6,46.8c5.4,0.9,10.6,1.3,15.7,1.3c37,0,65.7-22.8,93.6-44.9
		c22.9-18.1,44.5-35.2,69.8-39.6c21.6-4.1,38.6,0.2,56.2,9l0,0c0.4,0.2,0.7,0.3,1.1,0.5c1.7,0.9,3.4,1.8,5.1,2.7V48
		c14.6,7.2,29.1,16.5,44,26.1c38.6,24.8,78.5,50.4,127.4,40.8c28.3-7.4,50.7-25.4,72.5-42.7c24-19.2,46.7-37.2,74.8-39.4
		c32.2-2.4,60.5,18,90.4,39.5c29,20.9,59,42.5,95.6,46.8c5.4,0.9,10.6,1.3,15.7,1.3c37,0,65.7-22.8,93.6-44.9
		c22.9-18.1,44.5-35.2,69.8-39.6c24.2-4.6,42.6,1.3,62.5,12.3v-0.7c14.9,7.3,29.6,16.7,44.7,26.4c38.6,24.8,78.5,50.4,127.4,40.8
		c28.3-7.4,50.7-25.4,72.5-42.7c24-19.2,46.7-37.2,74.8-39.4c32.2-2.4,60.5,18,90.4,39.5c29,20.9,59,42.5,95.6,46.8
		c5.4,0.9,10.6,1.3,15.7,1.3c37,0,65.7-22.8,93.6-44.9c22.9-18.1,44.5-35.2,69.8-39.6c21.2-4,38,0.1,55.2,8.5v-0.1
		c15.6,7.4,31,17.3,46.9,27.5c38.6,24.8,78.5,50.4,127.4,40.8c28.3-7.4,50.7-25.4,72.5-42.7c24-19.2,46.7-37.2,74.8-39.4
		c32.2-2.4,60.5,18,90.4,39.5c29,20.9,59,42.5,95.6,46.8c5.4,0.9,10.6,1.3,15.7,1.3c37,0,65.7-22.8,93.6-44.9
		c22.9-18.1,44.5-35.2,69.8-39.6c24.2-4.6,42.6,1.3,62.5,12.3V45c14.9,7.3,29.6,16.7,44.7,26.4c38.6,24.8,78.5,50.4,127.4,40.8
		c28.3-7.4,50.7-25.4,72.5-42.7c24-19.2,46.7-37.2,74.8-39.4c32.2-2.4,60.5,18,90.4,39.5c29,20.9,59,42.5,95.6,46.8
		c5.4,0.9,10.6,1.3,15.7,1.3c37,0,65.7-22.8,93.6-44.9c22.9-18.1,44.5-35.2,69.8-39.6c20-3.8,36.1-0.4,52.4,7.2l0,0
		c0.4,0.2,0.8,0.4,1.2,0.6c2.9,1.4,5.8,2.9,8.8,4.5v-0.2c13.3,6.9,26.6,15.4,40.2,24.2c38.6,24.8,78.5,50.4,127.4,40.8
		c28.3-7.4,50.7-25.4,72.5-42.7c24-19.2,46.7-37.2,74.8-39.4c32.2-2.4,60.5,18,90.4,39.5c29,20.9,59,42.5,95.6,46.8
		c5.4,0.9,10.6,1.3,15.7,1.3c37,0,65.7-22.8,93.6-44.9c22.9-18.1,44.5-35.2,69.8-39.6c24.2-4.6,42.6,1.3,62.5,12.3V12.3
		C4411,3.5,4389.5-1.2,4363.2,3.9z"/>
</g>
</svg>
