<?xml version="1.0" encoding="utf-8"?>
<!-- Generator: Adobe Illustrator 25.0.0, SVG Export Plug-In . SVG Version: 6.00 Build 0)  -->
<svg version="1.1" id="Layer_1" xmlns="http://www.w3.org/2000/svg" xmlns:xlink="http://www.w3.org/1999/xlink" x="0px" y="0px"
	 viewBox="0 0 56.7 56.7" style="enable-background:new 0 0 56.7 56.7;" xml:space="preserve">
<style type="text/css">
	.st0{fill:#14385F;}
	.st1{fill:#F6D7DB;}
</style>
<path class="st0" d="M53.3,11.7c-0.6,1-1.2,1.1-2.1,0.4c-2.8-2.1-5.6-4.1-8.4-6.3c-0.3-0.3-0.6-0.3-1,0c-0.5,0.4-0.9,0.7-1.6,1.3
	c0.3,0.1,0.6,0.2,0.7,0.3c2.9,2.2,5.9,4.4,8.8,6.6c0.2,0.2,0.5,0.4,0.6,0.7c0.2,0.5,0.1,0.9-0.3,1.3c-0.5,0.3-0.9,0.3-1.4,0
	c-1.2-0.9-2.4-1.7-3.5-2.6c-2-1.5-4-3-6-4.5c-0.5,0.6-0.9,1.3-1.4,1.9c2,1.5,4.1,3,6.2,4.5c1,0.7,2.1,1.6,3.1,2.3
	c0.2,0.1,0.3,0.3,0.5,0.4c0.3,0.4,0.4,0.9,0.1,1.4c-0.3,0.4-0.9,0.6-1.3,0.3c-0.2-0.1-0.4-0.2-0.6-0.4c-2.9-2.2-5.8-4.3-8.7-6.5
	c-0.2-0.1-0.3-0.3-0.5-0.5c-0.5,0.7-0.9,1.3-1.4,2c0.1,0.1,0.3,0.2,0.4,0.3c2.9,2.2,5.9,4.4,8.8,6.6c0.2,0.1,0.3,0.2,0.5,0.4
	c0.4,0.4,0.4,1,0.1,1.4s-0.9,0.6-1.4,0.3c-0.2-0.1-0.3-0.2-0.5-0.3c-2.9-2.2-5.9-4.4-8.8-6.6c-0.2-0.1-0.3-0.3-0.5-0.5
	c-0.5,0.7-0.9,1.3-1.4,2c0.1,0.1,0.3,0.2,0.5,0.3c2.9,2.4,5.8,4.5,8.7,6.7c0.2,0.1,0.4,0.3,0.6,0.5c0.4,0.4,0.4,1,0.1,1.4
	c-0.3,0.4-0.9,0.6-1.4,0.3c-0.2-0.1-0.3-0.2-0.5-0.4c-3-2.3-6.2-4.5-9.2-6.8c-0.5,0.6-0.9,1.3-1.4,2.1c0.1,0.1,0.3,0.1,0.5,0.2
	c3,2.2,5.9,4.4,8.9,6.6c0.5,0.3,0.8,0.7,0.7,1.3c-0.2,0.7-0.9,1.1-1.6,0.8c-0.2-0.1-0.3-0.2-0.5-0.3c-2.9-2.2-5.9-4.4-8.8-6.6
	c-0.2-0.1-0.3-0.3-0.4-0.4c-0.5,0.7-0.9,1.3-1.4,2c0.1,0.1,0.2,0.2,0.4,0.3c2.9,2.2,5.9,4.4,8.8,6.6c0.2,0.1,0.4,0.3,0.5,0.5
	c0.3,0.4,0.3,1,0,1.4c-0.3,0.4-0.8,0.5-1.3,0.3c-0.2-0.1-0.4-0.2-0.6-0.3c-3-2.2-5.9-4.4-8.9-6.6c-0.1-0.1-0.3-0.2-0.4-0.3
	c-0.5,0.6-0.9,1.3-1.4,2c0.5,0.3,1.1,0.7,1.7,1.2c2.5,1.9,5.1,3.8,7.6,5.7c0.2,0.1,0.3,0.2,0.5,0.4c0.3,0.3,0.4,0.9,0.1,1.4
	c-0.3,0.5-0.9,0.6-1.4,0.4c-0.2-0.1-0.3-0.2-0.5-0.3c-2.9-2.2-5.9-4.4-8.8-6.6c-0.2-0.1-0.3-0.3-0.5-0.5c-0.5,0.7-0.9,1.3-1.4,2
	c0.1,0.1,0.3,0.2,0.5,0.3c3,2.2,6,4.5,9,6.7c0.9,0.6,0.8,1.7-0.1,2c-0.5,0.2-0.9,0-1.3-0.3c-2.9-2.2-5.8-4.3-8.7-6.4
	c-0.3-0.2-0.5-0.5-0.7-0.6c-0.5,0.7-1,1.3-1.5,2c0.2,0.1,0.3,0.3,0.5,0.4c3,2.2,5.9,4.4,8.9,6.7c0.3,0.2,0.6,0.6,0.6,0.9
	c0.1,0.3-0.2,0.9-0.4,1c-0.2,0.2-0.7,0.2-1.1,0.1c-0.2-0.1-0.4-0.3-0.6-0.4c-2.9-2.2-5.9-4.4-8.8-6.6c-0.1-0.1-0.2-0.2-0.3-0.2
	c-0.5,0.6-0.9,1.2-1.4,1.9c0.1,0.1,0.2,0.2,0.4,0.3c2.9,2.2,5.9,4.4,8.8,6.6c0.2,0.1,0.4,0.3,0.6,0.5c0.4,0.4,0.4,1,0.1,1.4
	c-0.3,0.4-0.9,0.5-1.3,0.3c-0.2-0.1-0.4-0.2-0.6-0.4c-2.9-2.2-5.8-4.3-8.7-6.5c-0.2-0.1-0.3-0.3-0.5-0.5c-0.5,0.7-0.9,1.3-1.4,2
	c0.7,0.5,1.4,1,2.2,1.6c2.4,1.7,4.7,3.5,7.1,5.2c0.2,0.1,0.3,0.2,0.5,0.4c0.3,0.4,0.4,0.9,0.1,1.4s-0.9,0.6-1.4,0.3
	c-0.2-0.1-0.4-0.2-0.6-0.4c-3-2.3-6.2-4.5-9.3-7c-0.3,0.7-0.6,1.4-0.7,2.1c-0.1,0.1,0.2,0.4,0.3,0.5c2.8,2.1,5.5,4.1,8.3,6.2
	c0.2,0.1,0.3,0.2,0.5,0.4c0.4,0.4,0.5,1,0.1,1.4c-0.3,0.5-0.9,0.6-1.4,0.3c-0.2-0.1-0.3-0.2-0.5-0.3c-3.1-2.4-6.3-4.7-9.4-7
	c-1.1-0.8-2.1-1.7-3.2-2.6C3,44.2,2.6,39.1,4.9,35.9c3.8-5.1,7.6-10.2,11.4-15.3c4.3-5.8,8.6-11.4,12.8-17.2C30.2,2,31.4,1,33,0.5
	c0.1,0,0.1-0.1,0.1-0.1c0.7-0.1,1.5-0.2,2.2-0.3c0.1,0,0.3,0.1,0.4,0.1c1.3,0.1,2.5,0.3,3.6,1c1.4,0.9,2.7,1.7,4,2.6
	c2.8,2,5.5,4.1,8.3,6.1c0.6,0.4,1.1,0.9,1.6,1.3C53.2,11.1,53.2,11.4,53.3,11.7z M9.2,46.2c0.5-1.8,1.7-3.3,2.8-4.7
	c8.6-11.6,17.3-23.2,25.9-34.7c0.1-0.2,0.3-0.4,0.5-0.6C39,5.5,39.7,4.8,40.4,4c-0.5-0.3-1.1-0.7-1.7-1.1c-2.7-1.8-5.9-1.3-7.9,1.4
	c-2.6,3.6-5.3,7.1-8,10.8c-5.3,7.2-10.8,14.4-16.1,21.6c-1.3,1.8-1.5,3.7-0.9,5.9C6.4,44.3,7.8,45.1,9.2,46.2z"/>
<path class="st1" d="M8.6,46.2c-1.4-1.1-2.8-1.9-3.3-3.7c-0.6-2.1-0.5-4.1,0.9-5.9c5.3-7.2,10.8-14.4,16.1-21.6
	c2.6-3.6,5.3-7.1,8-10.8c2-2.6,5.2-3.2,7.9-1.4c0.6,0.3,1.1,0.7,1.7,1.1c-0.7,0.7-1.4,1.4-2.1,2.1c-0.2,0.2-0.3,0.3-0.5,0.6
	C28.7,18.2,20,29.8,11.4,41.4C10.3,43,9.1,44.3,8.6,46.2z"/>
</svg>
