<svg width="40" height="40" viewBox="0 0 40 40" fill="none" xmlns="http://www.w3.org/2000/svg">
<rect width="40" height="40" rx="20" fill="#E4E6E9"/>
<path d="M20.1667 31.8519C20.3128 31.8519 20.4588 31.8081 20.5903 31.735C21.0578 31.4867 32 25.2632 32 17.389C32 15.6359 31.3134 13.985 30.0716 12.7433C28.8298 11.5015 27.179 10.8149 25.4259 10.8149C23.3222 10.8149 21.3938 11.8083 20.1667 13.4445C18.399 11.0925 15.1996 10.1429 12.38 11.3262C9.92572 12.3488 8.33333 14.7301 8.33333 17.389C8.33333 25.2632 19.2755 31.4867 19.743 31.735C19.8745 31.8081 20.0206 31.8519 20.1667 31.8519ZM25.4259 12.568C26.7115 12.568 27.9241 13.0647 28.8298 13.985C29.7502 14.8908 30.2469 16.1034 30.2469 17.389C30.2469 23.4371 22.1389 28.7548 20.1667 29.9527C18.1944 28.7548 10.0864 23.4225 10.0864 17.389C10.0864 15.4313 11.2551 13.6929 13.0521 12.9332C15.5064 11.9106 18.3405 13.0647 19.3632 15.519C19.4946 15.8404 19.816 16.0595 20.1667 16.0595C20.5173 16.0595 20.8387 15.8404 20.9702 15.519C21.7298 13.7367 23.4683 12.568 25.4259 12.568Z" fill="#EA6079"/>
</svg>
