<svg width="28" height="28" viewBox="0 0 28 28" fill="none" xmlns="http://www.w3.org/2000/svg">
<rect width="28" height="28" rx="14" fill="#E4E6E9"/>
<path d="M14.1167 22.2963C14.219 22.2963 14.3212 22.2656 14.4133 22.2145C14.7405 22.0406 22.4 17.6842 22.4 12.1722C22.4 10.9451 21.9194 9.78949 21.0501 8.92025C20.1809 8.05101 19.0253 7.57037 17.7982 7.57037C16.3256 7.57037 14.9757 8.26576 14.1167 9.41111C12.8793 7.76467 10.6397 7.09996 8.66605 7.9283C6.94803 8.64414 5.83336 10.311 5.83336 12.1722C5.83336 17.6842 13.4929 22.0406 13.8201 22.2145C13.9122 22.2656 14.0144 22.2963 14.1167 22.2963ZM17.7982 8.79753C18.6981 8.79753 19.5469 9.14523 20.1809 9.78949C20.8252 10.4235 21.1729 11.2723 21.1729 12.1722C21.1729 16.4059 15.4972 20.1283 14.1167 20.9669C12.7361 20.1283 7.06052 16.3957 7.06052 12.1722C7.06052 10.8019 7.87862 9.58496 9.13646 9.05319C10.8545 8.33735 12.8384 9.14523 13.5542 10.8633C13.6463 11.0882 13.8713 11.2416 14.1167 11.2416C14.3621 11.2416 14.5871 11.0882 14.6791 10.8633C15.2109 9.61564 16.4278 8.79753 17.7982 8.79753Z" fill="black"/>
</svg>
