<svg width="15" height="18" viewBox="0 0 15 18" fill="none" xmlns="http://www.w3.org/2000/svg">
<path fill-rule="evenodd" clip-rule="evenodd" d="M7.07146 5.14289C6.00634 5.14289 5.14289 6.00634 5.14289 7.07146C5.14289 8.13658 6.00634 9.00003 7.07146 9.00003C8.13658 9.00003 9.00003 8.13658 9.00003 7.07146C9.00003 6.00634 8.13658 5.14289 7.07146 5.14289ZM3.85718 7.07146C3.85718 5.29626 5.29626 3.85718 7.07146 3.85718C8.84666 3.85718 10.2857 5.29626 10.2857 7.07146C10.2857 8.84666 8.84666 10.2857 7.07146 10.2857C5.29626 10.2857 3.85718 8.84666 3.85718 7.07146Z" fill="black"/>
<path fill-rule="evenodd" clip-rule="evenodd" d="M7.07143 1.28571C5.53696 1.28571 4.06534 1.89528 2.98031 2.98031C1.89528 4.06534 1.28571 5.53696 1.28571 7.07143C1.28571 9.73282 2.7719 12.1562 4.34225 13.9621C5.11957 14.856 5.89854 15.5767 6.48331 16.0738C6.71457 16.2704 6.91473 16.4313 7.07143 16.5536C7.22813 16.4313 7.42828 16.2704 7.65955 16.0738C8.24432 15.5767 9.02329 14.856 9.80061 13.9621C11.371 12.1562 12.8571 9.73282 12.8571 7.07143C12.8571 5.53696 12.2476 4.06534 11.1625 2.98031C10.0775 1.89528 8.6059 1.28571 7.07143 1.28571ZM7.07143 17.3571C6.70277 17.8838 6.70259 17.8837 6.70239 17.8835L6.70186 17.8832L6.70035 17.8821L6.6956 17.8787L6.69096 17.8755C6.6877 17.8731 6.68379 17.8704 6.67925 17.8671C6.66536 17.8572 6.64554 17.8429 6.6202 17.8244C6.56951 17.7874 6.49666 17.7334 6.40483 17.6632C6.22123 17.5229 5.96136 17.3176 5.65062 17.0534C5.03004 16.5259 4.20186 15.7601 3.37204 14.8058C1.7281 12.9152 0 10.1957 0 7.07143C0 5.19597 0.745023 3.39732 2.07117 2.07117C3.39732 0.745023 5.19597 0 7.07143 0C8.94689 0 10.7455 0.745023 12.0717 2.07117C13.3978 3.39732 14.1429 5.19597 14.1429 7.07143C14.1429 10.1957 12.4148 12.9152 10.7708 14.8058C9.941 15.7601 9.11282 16.5259 8.49224 17.0534C8.1815 17.3176 7.92162 17.5229 7.73802 17.6632C7.64619 17.7334 7.57335 17.7874 7.52266 17.8244C7.49731 17.8429 7.47749 17.8572 7.4636 17.8671C7.45666 17.8721 7.45119 17.876 7.44725 17.8787L7.4425 17.8821L7.441 17.8832L7.44047 17.8835C7.44026 17.8837 7.44008 17.8838 7.07143 17.3571ZM7.07143 17.3571L7.44008 17.8838C7.21873 18.0387 6.92412 18.0387 6.70277 17.8838L7.07143 17.3571Z" fill="black"/>
</svg>
