<svg width="216" height="36" viewBox="0 0 216 36" fill="none" xmlns="http://www.w3.org/2000/svg">
<path d="M14.3982 34.9429C12.1099 34.9429 9.57987 34.7144 6.79403 34.2431C4.00819 33.7862 1.74826 33.2435 0 32.6438L0.426404 25.7466C4.71887 27.8886 9.22453 28.9739 13.9576 29.0024C15.8338 29.031 17.3546 28.8168 18.5343 28.3598C19.7141 27.9029 20.2968 27.2888 20.2968 26.5177C20.2968 26.3321 20.24 26.1322 20.1263 25.9465C20.0125 25.7609 19.842 25.5752 19.6288 25.3896C19.4014 25.2182 19.174 25.0612 18.9181 24.9041C18.6623 24.7613 18.3354 24.6042 17.9232 24.4186C17.511 24.2472 17.1272 24.1044 16.7861 23.9902C16.4308 23.8759 15.9901 23.7474 15.45 23.5761C14.9099 23.419 14.4409 23.2762 14.0429 23.1762C13.6449 23.062 13.1332 22.9192 12.5221 22.7478C11.8967 22.5765 11.3992 22.4337 11.0154 22.348C9.45195 21.9053 8.1301 21.4769 7.00723 21.0485C5.89858 20.6344 4.78994 20.0775 3.66707 19.3921C2.55842 18.7066 1.71983 17.8784 1.13708 16.9216C0.568538 15.9649 0.284269 14.8653 0.284269 13.623C0.284269 11.0383 1.52084 8.95346 3.99398 7.36839C6.49555 5.81188 9.94942 5.02649 14.3982 5.02649C19.0745 5.02649 22.9689 5.69764 26.1243 7.03995L25.9822 13.5516C24.7172 12.8519 23.04 12.2378 20.9506 11.738C18.8755 11.224 16.7861 10.9669 14.6825 10.9669C12.8063 10.9669 11.2571 11.1954 10.0347 11.6381C8.81234 12.0808 8.20117 12.6948 8.20117 13.4516C8.20117 13.6373 8.24381 13.8372 8.3433 14.0228C8.44279 14.2085 8.59914 14.3941 8.84077 14.5797C9.0824 14.7511 9.32403 14.9082 9.55144 15.0652C9.79307 15.208 10.12 15.3508 10.5322 15.4936C10.9444 15.6364 11.3281 15.7792 11.6692 15.8935C12.0246 16.022 12.4652 16.1505 13.0053 16.3076C13.5454 16.4504 14.0003 16.5789 14.384 16.6932C14.7678 16.8074 15.2795 16.9359 15.9049 17.1073C16.5445 17.2644 17.0419 17.3929 17.4257 17.4928C19.1029 17.9355 20.5242 18.3782 21.6613 18.8066C22.7984 19.235 23.9213 19.7776 25.0015 20.4345C26.0817 21.0914 26.8919 21.891 27.432 22.8478C27.9721 23.8045 28.2421 24.9041 28.2421 26.1464C28.2421 28.9167 26.9487 31.0873 24.3761 32.6295C21.8319 34.1717 18.5059 34.9429 14.3982 34.9429Z" fill="#EA6079"/>
<path d="M31.9377 21.1057C33.6859 19.6634 36.0454 18.9494 39.0444 18.9494C42.4698 18.9494 45.1846 19.849 47.1887 21.634V19.4349C47.1887 18.2211 46.5775 17.1073 45.3552 16.1077C44.1328 15.1081 42.3135 14.594 39.8972 14.594C37.1398 14.594 34.4392 15.1795 31.7955 16.3647L31.696 11.4382C34.9367 10.253 38.1347 9.66748 41.2759 9.66748C45.1135 9.66748 48.2547 10.3958 50.6568 11.8666C53.0731 13.3374 54.2812 15.6365 54.2812 18.7638V34.3288H48.141C47.7288 33.2436 47.4588 32.3439 47.3308 31.6442C45.5257 33.8719 42.7399 35 38.9875 35C36.0311 35 33.6859 34.2717 31.9377 32.8152C30.1894 31.3729 29.3224 29.4166 29.3224 26.9604C29.3224 24.49 30.1894 22.5479 31.9377 21.1057ZM37.8505 29.7307C38.7743 30.5018 40.0251 30.8731 41.617 30.8731C44.2465 30.8731 46.1085 29.9164 47.1887 28.0029V24.747C45.9521 23.3476 44.1186 22.6336 41.7023 22.6336C40.0251 22.6336 38.7175 22.9906 37.822 23.7046C36.9124 24.4186 36.4575 25.4182 36.4575 26.7034C36.4718 27.9886 36.9266 29.0024 37.8505 29.7307Z" fill="#EA6079"/>
<path d="M57.8204 34.3288V0H64.9697V34.3288H57.8204Z" fill="#EA6079"/>
<path d="M66.0499 10.3386H73.4835L79.8227 27.0461L86.2046 10.3386H93.5956L84.0583 34.3288H75.6297L66.0499 10.3386Z" fill="#EA6079"/>
<path d="M96.6089 13.0661C99.0252 10.7956 102.195 9.66748 106.146 9.66748C110.112 9.66748 113.253 10.7956 115.555 13.0661C117.858 15.3366 119.009 18.264 119.009 21.8768C119.009 22.5479 118.924 23.2762 118.768 24.0759H99.8353C100.063 25.9608 100.958 27.4174 102.522 28.4598C104.099 29.5022 106.103 30.0163 108.548 30.0163C111.718 30.0163 114.504 29.2738 116.891 27.7601L117.275 32.7438C114.703 34.2146 111.377 34.9429 107.312 34.9429C102.834 34.9429 99.3236 33.8005 96.7794 31.5157C94.2352 29.2309 92.9702 26.1465 92.9702 22.2481C92.9844 18.4068 94.1926 15.3366 96.6089 13.0661ZM99.7927 20.92H112.471C112.443 18.978 111.831 17.4072 110.638 16.2219C109.444 15.0367 107.965 14.4512 106.189 14.4512C104.469 14.4512 103.033 15.0224 101.854 16.1505C100.674 17.2929 99.9917 18.878 99.7927 20.92Z" fill="#EA6079"/>
<path d="M123.956 13.1232C126.5 10.8242 129.868 9.68176 134.061 9.68176C137.274 9.68176 139.974 10.1102 142.163 10.9812L141.495 16.2933C139.647 15.3652 137.629 14.9082 135.44 14.9082C132.967 14.9082 130.963 15.5794 129.442 16.9217C127.921 18.264 127.154 20.0347 127.154 22.2338C127.154 24.4614 127.95 26.275 129.541 27.6744C131.133 29.0596 133.209 29.7593 135.781 29.7593C138.226 29.7593 140.557 29.1595 142.788 27.9457L142.931 33.4006C140.386 34.4859 137.444 35.0285 134.118 35.0285C129.897 35.0285 126.5 33.8576 123.941 31.5157C121.383 29.1738 120.104 26.1179 120.104 22.348C120.09 18.5067 121.383 15.4508 123.956 13.1232Z" fill="#EA6079"/>
<path d="M146.058 21.1057C147.806 19.6634 150.165 18.9494 153.164 18.9494C156.59 18.9494 159.304 19.849 161.309 21.634V19.4349C161.309 18.2211 160.697 17.1073 159.475 16.1077C158.253 15.1081 156.433 14.594 154.017 14.594C151.26 14.594 148.559 15.1795 145.915 16.3647L145.816 11.4382C149.057 10.253 152.255 9.66748 155.396 9.66748C159.233 9.66748 162.375 10.3958 164.777 11.8666C167.193 13.3374 168.401 15.6365 168.401 18.7638V34.3288H162.261C161.849 33.2436 161.579 32.3439 161.451 31.6442C159.646 33.8719 156.86 35 153.107 35C150.151 35 147.806 34.2717 146.058 32.8152C144.309 31.3586 143.442 29.4023 143.442 26.9461C143.442 24.49 144.323 22.5479 146.058 21.1057ZM151.97 29.7307C152.894 30.5018 154.145 30.8731 155.737 30.8731C158.366 30.8731 160.228 29.9164 161.309 28.0029V24.747C160.072 23.3476 158.238 22.6336 155.822 22.6336C154.145 22.6336 152.837 22.9906 151.942 23.7046C151.032 24.4186 150.577 25.4182 150.577 26.7034C150.592 27.9886 151.046 29.0024 151.97 29.7307Z" fill="#EA6079"/>
<path d="M171.94 34.3288V10.3386H178.663C178.919 11.5524 179.047 13.0804 179.047 14.9368C179.9 13.3089 181.037 12.0237 182.43 11.0812C183.823 10.1387 185.4 9.66748 187.149 9.66748C188.257 9.66748 189.266 9.82456 190.148 10.153L190.048 16.4219C189.096 15.8792 187.987 15.6079 186.708 15.6079C183.055 15.6079 180.511 17.5928 179.09 21.5483V34.3288H171.94Z" fill="#EA6079"/>
<path d="M192.905 21.1057C194.653 19.6634 197.013 18.9494 200.012 18.9494C203.437 18.9494 206.152 19.849 208.156 21.634V19.4349C208.156 18.2211 207.545 17.1073 206.323 16.1077C205.1 15.1081 203.281 14.594 200.865 14.594C198.107 14.594 195.407 15.1795 192.763 16.3647L192.663 11.4382C195.904 10.253 199.102 9.66748 202.243 9.66748C206.081 9.66748 209.222 10.3958 211.624 11.8666C214.04 13.3374 215.249 15.6365 215.249 18.7638V34.3288H209.108C208.696 33.2436 208.426 32.3439 208.298 31.6442C206.493 33.8719 203.707 35 199.955 35C196.999 35 194.653 34.2717 192.905 32.8152C191.157 31.3586 190.29 29.4023 190.29 26.9461C190.29 24.49 191.157 22.5479 192.905 21.1057ZM198.818 29.7307C199.742 30.5018 200.993 30.8731 202.584 30.8731C205.214 30.8731 207.076 29.9164 208.156 28.0029V24.747C206.92 23.3476 205.086 22.6336 202.67 22.6336C200.993 22.6336 199.685 22.9906 198.789 23.7046C197.88 24.4186 197.425 25.4182 197.425 26.7034C197.439 27.9886 197.894 29.0024 198.818 29.7307Z" fill="#EA6079"/>
</svg>
