<?xml version="1.0" encoding="utf-8"?>
<!-- Generator: Adobe Illustrator 25.0.0, SVG Export Plug-In . SVG Version: 6.00 Build 0)  -->
<svg version="1.1" id="Layer_1" xmlns="http://www.w3.org/2000/svg" xmlns:xlink="http://www.w3.org/1999/xlink" x="0px" y="0px"
	 viewBox="0 0 56.7 56.7" style="enable-background:new 0 0 56.7 56.7;" xml:space="preserve">
<style type="text/css">
	.st0{fill:#14385F;}
	.st1{fill:#BFDEA0;}
</style>
<g>
	<path class="st0" d="M55.8,0.3c-0.2,0-0.5,0-0.6,0c-0.1,0.1-0.3,0.2-0.4,0.2c-2.1,0.6-4.1,1.3-6.1,2c-0.3,0.1-0.7,0.3-0.9,0.6
		C39.5,11,31.2,18.9,23,26.8c-0.7,0.6-1.4,1.3-2,1.9c-0.3,0.4-0.3,0.8,0,1.1c0.3,0.3,0.7,0.3,1.1,0.1c0.1-0.1,0.2-0.2,0.3-0.3
		C31,21.6,39.4,13.4,47.9,5.3c0.2-0.2,0.5-0.5,0.7-0.6c1.2,1.2,2.3,2.3,3.5,3.5c-9,9.4-18,18.8-27,28.1c-0.2-0.2-0.3-0.3-0.5-0.5
		c-1.9-1.9-3.8-3.8-5.7-5.7c-0.7-0.6-1-0.6-1.7,0.1C12.7,35.5,8,40.8,3.5,46c-1.2,1.4-2.7,2.6-3,4.6c0,0.5,0,1,0,1.5
		c0.1,0.1,0.1,0.1,0.1,0.2c0.9,3.8,5.1,5.3,8.2,2.7c5.9-5.1,11.8-10.3,17.7-15.4c0.9-0.8,0.9-1.1,0.1-1.9c-0.1-0.1-0.1-0.2-0.2-0.2
		c0.1-0.1,0.2-0.2,0.3-0.3c8.9-9.4,18-18.8,27-28.2c0.2-0.2,0.5-0.6,0.6-0.9c0.7-2.1,1.4-4.2,2.1-6.3C56.5,0.9,56.5,0.8,55.8,0.3z
		 M23,40.4c-5.1,4.5-10.2,8.9-15.3,13.3c-1.7,1.4-3.8,1.3-5-0.4C1.7,52,1.9,50.4,3,49.1c1.7-2,3.4-3.9,5.1-5.9
		c3.2-3.7,6.4-7.3,9.6-11c0.1-0.1,0.2-0.3,0.3-0.4c2.3,2.3,4.6,4.6,6.9,6.9C24.3,39.2,23.6,39.8,23,40.4z M52.9,6.4
		c-0.9-0.9-1.8-1.8-2.6-2.6c1.3-0.4,2.6-0.9,3.9-1.3C53.8,3.8,53.4,5.2,52.9,6.4z"/>
	<path class="st0" d="M5.2,56.5c-0.5,0-1-0.1-1.5-0.2c-1.7-0.6-3-2-3.4-3.9c0,0,0-0.1-0.1-0.1c0,0,0-0.1-0.1-0.1v-0.1v-1.5
		c0.3-1.7,1.4-2.8,2.4-3.9c0.2-0.2,0.5-0.5,0.7-0.7c3.4-3.9,7-8,10.3-11.9l3.4-3.9c0.3-0.4,0.6-0.6,0.9-0.6c0.3,0,0.6,0.2,0.9,0.5
		c1.1,1.1,2.3,2.3,3.5,3.5l2.2,2.2c0.1,0.1,0.2,0.2,0.3,0.3l0.1,0.1l26.9-28l-3.3-3.3l-0.1,0.1C48.3,5,48.1,5.2,48,5.4L22.5,29.9
		c-0.1,0.1-0.2,0.2-0.2,0.2c-0.4,0.3-1,0.3-1.3-0.1c-0.4-0.4-0.4-1,0-1.4c0.5-0.5,1-1,1.5-1.5l1.9-1.8C32.1,17.9,39.9,10.5,47.7,3
		c0.3-0.2,0.6-0.5,1-0.6c1.3-0.5,2.7-0.9,4-1.4c0.7-0.2,1.4-0.5,2.1-0.7c0.1-0.1,0.2-0.1,0.3-0.1c0.1,0,0.1-0.1,0.1-0.1h0.1h0.7
		l0.1,0.1c0.6,0.5,0.7,0.7,0.5,1.5L56,2.8c-0.6,1.7-1.2,3.5-1.8,5.3c-0.1,0.3-0.3,0.7-0.6,1c-8,8.3-16.1,16.7-24.1,25l-3,3.1
		c-0.1,0.1-0.1,0.1-0.2,0.2c0.1,0.1,0.1,0.1,0.1,0.1c0.4,0.5,0.7,0.7,0.6,1.1c0,0.3-0.3,0.6-0.7,1l-4.1,3.5
		c-4.5,3.9-9,7.9-13.6,11.9C7.7,56,6.5,56.5,5.2,56.5z M0.5,52.2c0.1,0.1,0.1,0.1,0.1,0.2c0.5,1.8,1.7,3.1,3.3,3.7
		c1.6,0.5,3.3,0.1,4.7-1.1C13.2,51,17.8,47,22.2,43l4.1-3.5c0.5-0.4,0.6-0.6,0.6-0.9c0-0.2-0.2-0.5-0.6-0.9
		c-0.1-0.1-0.1-0.1-0.2-0.2L26,37.4l0.2-0.2c0.1-0.1,0.2-0.2,0.2-0.2l3-3.1c8.1-8.4,16.1-16.8,24.1-25.2c0.2-0.2,0.4-0.6,0.5-0.9
		c0.6-1.8,1.2-3.5,1.8-5.3l0.3-1.1c0.2-0.6,0.2-0.7-0.3-1.1h-0.6c-0.1,0-0.1,0.1-0.1,0.1c-0.1,0.1-0.2,0.1-0.3,0.2
		c-0.7,0.2-1.4,0.5-2.1,0.7c-1.3,0.5-2.7,0.9-4,1.4c-0.3,0.1-0.6,0.3-0.9,0.5c-7.8,7.4-15.6,14.9-23.3,22.4l-1.9,1.8
		c-0.5,0.5-1,1-1.5,1.5c-0.3,0.3-0.3,0.7,0,1c0.2,0.2,0.6,0.3,1,0c0.1-0.1,0.1-0.1,0.2-0.2l0.1-0.1L47.8,5.2
		c0.2-0.2,0.3-0.3,0.5-0.5l0.3-0.3l3.7,3.7l-0.1,0.1L25,36.5l-0.3-0.2c-0.1-0.1-0.2-0.2-0.3-0.3l-2.2-2.2c-1.1-1.1-2.3-2.3-3.5-3.5
		c-0.3-0.3-0.5-0.5-0.7-0.5s-0.4,0.2-0.7,0.5l-3.4,3.9c-3.4,3.9-6.9,7.9-10.3,11.9c-0.2,0.3-0.5,0.5-0.7,0.7c-1,1.1-2,2.2-2.3,3.7
		L0.5,52.2z M5.2,54.8c-0.1,0-0.2,0-0.3,0c-0.9-0.1-1.8-0.6-2.3-1.4c-1-1.3-0.8-3,0.3-4.3c1.1-1.3,2.3-2.6,3.4-3.9l11.3-13
		c0.1-0.1,0.2-0.2,0.2-0.3l0.2-0.2l0.1,0.1l7,7l-0.8,0.6c-0.5,0.4-0.9,0.8-1.4,1.2c-5.1,4.4-10.2,8.9-15.3,13.3
		C7,54.4,6.1,54.8,5.2,54.8z M18,32c-0.1,0.1-0.2,0.2-0.2,0.3l-11.3,13c-1.1,1.3-2.3,2.6-3.4,3.9c-1.1,1.3-1.2,2.7-0.3,4
		c0.6,0.7,1.3,1.2,2.2,1.3c0.9,0.1,1.8-0.2,2.6-0.9c5.1-4.5,10.2-8.9,15.3-13.3c0.5-0.4,0.9-0.8,1.4-1.2l0.5-0.5L18,32z M53,6.7
		l-3-3l4.5-1.5L53,6.7z M50.6,3.8l2.3,2.3l1.1-3.5L50.6,3.8z"/>
	<path class="st1" d="M17.7,32.1c-3.2,3.7-6.4,7.4-9.6,11c-1.7,2-3.4,3.9-5.1,5.9c-1.1,1.3-1.3,2.9-0.3,4.2c1.2,1.7,3.4,1.9,5,0.4
		c5.1-4.5,10.2-8.9,15.3-13.3c0.7-0.6,1.3-1.1,1.9-1.7c-2.3-2.3-4.5-4.6-6.9-6.9C17.9,31.9,17.8,32,17.7,32.1z"/>
	<path class="st1" d="M52.9,6.4c0.4-1.3,0.9-2.6,1.3-4c-1.4,0.5-2.7,0.9-3.9,1.3C51.2,4.6,52.1,5.5,52.9,6.4z"/>
</g>
</svg>
