<svg width="12" height="12" viewBox="0 0 12 12" fill="none" xmlns="http://www.w3.org/2000/svg">
<path fill-rule="evenodd" clip-rule="evenodd" d="M5.18933 0.579181L4.00537 3.65551C4.00384 3.65948 4.00236 3.66348 4.00095 3.66749C3.9994 3.66849 3.99718 3.66971 3.99426 3.67082C3.99101 3.67206 3.98748 3.67295 3.98391 3.67341L0.826406 3.88772L0.824916 3.88783C0.0135908 3.94584 -0.286761 5.00258 0.324365 5.5248C0.324652 5.52505 0.324939 5.52529 0.325227 5.52554L2.7426 7.60439C2.75914 7.62184 2.76279 7.64421 2.75953 7.65825C2.7595 7.65835 2.75948 7.65845 2.75946 7.65855L1.98147 10.8407L1.98113 10.8421C1.79788 11.6021 2.59302 12.3205 3.29885 11.8497C3.29937 11.8494 3.2999 11.849 3.30043 11.8487L5.98886 10.0789C5.99119 10.0778 5.99593 10.0762 6.0028 10.0762C6.00961 10.0762 6.01433 10.0778 6.01668 10.0789L8.52193 11.7318C8.52244 11.7322 8.52295 11.7325 8.52346 11.7328C8.52431 11.7334 8.52515 11.7339 8.526 11.7345C9.28986 12.2261 10.1827 11.476 9.97449 10.6126L9.97418 10.6113L9.25297 7.65728C9.25209 7.65368 9.25117 7.65009 9.25021 7.64651C9.24881 7.64133 9.24875 7.63605 9.25074 7.62965C9.25291 7.62266 9.25725 7.6157 9.26312 7.61042C9.26327 7.61029 9.26341 7.61016 9.26356 7.61003L11.6823 5.52392L11.684 5.5224C12.2789 5.00373 11.9905 3.94675 11.1812 3.88786L11.1792 3.88772L8.02174 3.67342C8.0153 3.67257 8.01096 3.67032 8.0083 3.6683C8.00577 3.66638 8.00332 3.66367 8.00128 3.65827L8.00023 3.65551L6.81625 0.579133C6.73304 0.353348 6.55488 0.148658 6.30649 0.0562772C5.86293 -0.113762 5.36087 0.113244 5.18933 0.579181ZM6.00288 0.888427C6.00473 0.888353 6.00677 0.888582 6.00946 0.889628C6.01046 0.89002 6.01147 0.890408 6.01248 0.890791C6.01308 0.891502 6.01375 0.892402 6.01439 0.893445C6.01526 0.894865 6.01569 0.895905 6.0158 0.8962C6.01684 0.899099 6.01792 0.901986 6.01903 0.904861L7.20392 3.9836C7.32997 4.31578 7.6238 4.53059 7.95232 4.55897C7.95485 4.55919 7.95738 4.55939 7.95991 4.55956L11.1217 4.77416C11.1243 4.77438 11.126 4.77471 11.1269 4.77493C11.1278 4.77516 11.1283 4.77535 11.1284 4.77539C11.1284 4.7754 11.1284 4.7754 11.1284 4.77542C11.1286 4.77548 11.1289 4.77566 11.1295 4.77618C11.1316 4.77805 11.1374 4.78468 11.1412 4.79745C11.1451 4.81021 11.1445 4.82108 11.143 4.82726C11.1423 4.82999 11.1414 4.83192 11.1405 4.83354C11.1396 4.83496 11.1376 4.8379 11.133 4.84201C11.1328 4.84215 11.1327 4.84229 11.1325 4.84243L8.71359 6.92874L8.71162 6.93045C8.45581 7.1538 8.32888 7.52023 8.4234 7.87982L9.14319 10.8281C9.14323 10.8282 9.14327 10.8284 9.1433 10.8285C9.15898 10.8942 9.13648 10.9428 9.09769 10.9732C9.07742 10.9891 9.05634 10.9964 9.03881 10.9978C9.0241 10.9989 9.00479 10.9966 8.97931 10.9805L6.46846 9.32387C6.46529 9.32178 6.46209 9.31973 6.45887 9.31772C6.18038 9.14447 5.82522 9.14447 5.54673 9.31772C5.54363 9.31965 5.54056 9.32162 5.53751 9.32362L2.83835 11.1005L2.83555 11.1024C2.8341 11.1033 2.8329 11.104 2.83197 11.1046C2.83046 11.1039 2.82826 11.1027 2.82555 11.1005C2.81888 11.0953 2.81435 11.0885 2.81224 11.0827C2.81129 11.08 2.8107 11.0773 2.81052 11.0742C2.81035 11.0713 2.81042 11.066 2.81232 11.058C2.81236 11.0579 2.81239 11.0577 2.81242 11.0576L3.59041 7.87544L3.59075 7.87403C3.67285 7.53352 3.56285 7.17299 3.31083 6.93919C3.30684 6.93549 3.30279 6.93187 3.29867 6.92832L0.870848 4.8405L0.869435 4.83929C0.863581 4.8343 0.861077 4.83069 0.860047 4.82902C0.858937 4.82722 0.858155 4.8254 0.857571 4.82314C0.856248 4.81802 0.855645 4.80869 0.85903 4.79745C0.862412 4.78622 0.867635 4.7801 0.870011 4.77803C0.870986 4.77718 0.871753 4.77672 0.872723 4.77631C0.873541 4.77597 0.876693 4.77471 0.883454 4.77419C0.883592 4.77418 0.883731 4.77417 0.883871 4.77416L4.04569 4.55956C4.04822 4.55939 4.05075 4.55919 4.05328 4.55897C4.36708 4.53186 4.6814 4.32804 4.80417 3.9771L5.98657 0.904861C5.98767 0.901986 5.98875 0.899099 5.9898 0.8962C5.99043 0.894468 5.99096 0.893802 5.99145 0.893269C5.99218 0.892477 5.99364 0.891236 5.99597 0.890152C5.99831 0.889063 6.00074 0.888513 6.00288 0.888427Z" fill="#F48038"/>
</svg>
