<svg width="12" height="12" viewBox="0 0 12 12" fill="none" xmlns="http://www.w3.org/2000/svg">
<path fill-rule="evenodd" clip-rule="evenodd" d="M6 0.923077C3.19609 0.923077 0.923077 3.19609 0.923077 6C0.923077 8.80391 3.19609 11.0769 6 11.0769C8.80391 11.0769 11.0769 8.80391 11.0769 6C11.0769 3.19609 8.80391 0.923077 6 0.923077ZM0 6C0 2.68629 2.68629 0 6 0C9.31371 0 12 2.68629 12 6C12 9.31371 9.31371 12 6 12C2.68629 12 0 9.31371 0 6Z" fill="black"/>
<path d="M5.99992 9.69235C6.38228 9.69235 6.69223 9.3824 6.69223 9.00005C6.69223 8.6177 6.38228 8.30774 5.99992 8.30774C5.61757 8.30774 5.30762 8.6177 5.30762 9.00005C5.30762 9.3824 5.61757 9.69235 5.99992 9.69235Z" fill="black"/>
<path fill-rule="evenodd" clip-rule="evenodd" d="M5.20521 2.92763C5.58472 2.77043 6.00232 2.7293 6.40521 2.80944C6.80809 2.88958 7.17816 3.08739 7.46863 3.37785C7.75909 3.66831 7.9569 4.03838 8.03703 4.44127C8.11717 4.84415 8.07604 5.26175 7.91885 5.64126C7.76165 6.02077 7.49544 6.34514 7.1539 6.57335C6.94215 6.71484 6.70733 6.81543 6.46156 6.87145V6.92338C6.46156 7.17828 6.25492 7.38492 6.00002 7.38492C5.74512 7.38492 5.53848 7.17828 5.53848 6.92338V6.46184C5.53848 6.33943 5.58711 6.22204 5.67366 6.13548C5.76022 6.04893 5.87761 6.0003 6.00002 6.0003C6.22823 6.0003 6.45131 5.93263 6.64106 5.80584C6.83081 5.67906 6.9787 5.49885 7.06603 5.28801C7.15337 5.07718 7.17622 4.84518 7.13169 4.62135C7.08717 4.39753 6.97728 4.19193 6.81591 4.03056C6.65454 3.86919 6.44895 3.7593 6.22512 3.71478C6.0013 3.67026 5.7693 3.69311 5.55846 3.78044C5.34762 3.86777 5.16742 4.01566 5.04063 4.20541C4.91384 4.39516 4.84617 4.61825 4.84617 4.84646C4.84617 5.10136 4.63953 5.30799 4.38463 5.30799C4.12973 5.30799 3.9231 5.10136 3.9231 4.84646C3.9231 4.43568 4.04491 4.03413 4.27312 3.69258C4.50134 3.35103 4.82571 3.08483 5.20521 2.92763Z" fill="black"/>
</svg>
