<svg width="21" height="20" viewBox="0 0 21 20" fill="none" xmlns="http://www.w3.org/2000/svg">
<path fill-rule="evenodd" clip-rule="evenodd" d="M9.40684 1.47577C5.53536 1.47577 2.39692 4.61422 2.39692 8.48569C2.39692 12.3572 5.53536 15.4956 9.40684 15.4956C13.2783 15.4956 16.4168 12.3572 16.4168 8.48569C16.4168 4.61422 13.2783 1.47577 9.40684 1.47577ZM0.921143 8.48569C0.921143 3.79917 4.72032 0 9.40684 0C14.0934 0 17.8925 3.79917 17.8925 8.48569C17.8925 13.1722 14.0934 16.9714 9.40684 16.9714C4.72032 16.9714 0.921143 13.1722 0.921143 8.48569Z" fill="white"/>
<path fill-rule="evenodd" clip-rule="evenodd" d="M14.3632 13.4428C14.6514 13.1546 15.1186 13.1546 15.4067 13.4428L19.8895 17.9255C20.1776 18.2137 20.1776 18.6809 19.8895 18.969C19.6013 19.2572 19.1341 19.2572 18.8459 18.969L14.3632 14.4863C14.0751 14.1982 14.0751 13.731 14.3632 13.4428Z" fill="white"/>
</svg>
