<?xml version="1.0" encoding="utf-8"?>
<!-- Generator: Adobe Illustrator 25.0.0, SVG Export Plug-In . SVG Version: 6.00 Build 0)  -->
<svg version="1.1" id="Layer_1" xmlns="http://www.w3.org/2000/svg" xmlns:xlink="http://www.w3.org/1999/xlink" x="0px" y="0px"
	 viewBox="0 0 85 85" style="enable-background:new 0 0 85 85;" xml:space="preserve">
<style type="text/css">
	.st0{fill:#CCE9E3;}
	.st1{fill:#14385F;}
</style>
<g>
	<path class="st0" d="M42.5,83.2C12.8,68,11.2,37.8,11.2,37.8V11.5c9.4-0.8,8.8-9.6,8.8-9.6h44.8c0,0-0.5,8.8,8.8,9.6v26.4
		C73.8,37.8,72.3,68,42.5,83.2z"/>
	<path class="st1" d="M42.5,85c-0.3,0-0.6-0.1-0.9-0.2C11.2,69.4,9.4,38.3,9.4,37.9V11.5c0-1,0.8-1.8,1.7-1.9
		C18.3,9,18.2,2.7,18.2,2c0-0.5,0.2-1,0.5-1.4C19,0.3,19.6,0,20.1,0h44.8c0.6,0,1,0.3,1.4,0.6c0.3,0.3,0.5,0.9,0.5,1.4
		c0,0.7-0.1,7.1,7.1,7.7c1,0.1,1.7,0.9,1.7,1.9v26.4c0,0.4-1.9,31.5-32.3,47C43.1,85,42.8,85,42.5,85z M13.2,13.2v24.7
		C13.2,38,15,66.4,42.5,81c27.6-14.6,29.3-42.9,29.3-43.3V13.2c-6.1-1.2-8.3-5.9-8.8-9.4H21.9C21.4,7.3,19.2,12,13.2,13.2z"/>
	<path class="st1" d="M39.5,47.4c-0.5,0-0.9-0.2-1.4-0.5l-9.8-9.8c-0.8-0.8-0.8-2,0-2.6c0.8-0.8,2-0.8,2.6,0l8.5,8.4L54,28.4
		c0.8-0.8,2-0.8,2.6,0c0.8,0.8,0.8,2,0,2.6L40.9,46.8C40.6,47.1,40.1,47.4,39.5,47.4z"/>
</g>
</svg>
