<svg width="14" height="13" viewBox="0 0 14 13" fill="none" xmlns="http://www.w3.org/2000/svg">
<path d="M7.27496 10.9167L10.425 12.9167C10.825 13.175 11.325 12.7917 11.2083 12.325L10.3 8.74167C10.25 8.54167 10.3166 8.325 10.475 8.18334L13.3083 5.83334C13.6833 5.525 13.4916 4.90834 13.0083 4.875L9.31663 4.63334C9.11663 4.61667 8.9333 4.49167 8.86663 4.3L7.4833 0.833339C7.3833 0.566672 7.0833 0.433339 6.81663 0.533339C6.67496 0.583339 6.56663 0.700006 6.51663 0.833339L5.1333 4.3C5.0583 4.49167 4.8833 4.61667 4.6833 4.63334L0.991628 4.875C0.516629 4.90834 0.324962 5.525 0.691628 5.83334L3.51663 8.18334C3.67496 8.31667 3.74996 8.53334 3.69163 8.74167L2.84996 12.0667C2.7083 12.6333 3.3083 13.0833 3.79163 12.7833L6.72496 10.9167C6.89163 10.8167 7.1083 10.8167 7.27496 10.9167Z" fill="#F48038"/>
</svg>
