<?xml version="1.0" encoding="utf-8"?>
<!-- Generator: Adobe Illustrator 25.0.0, SVG Export Plug-In . SVG Version: 6.00 Build 0)  -->
<svg version="1.1" id="Layer_1" xmlns="http://www.w3.org/2000/svg" xmlns:xlink="http://www.w3.org/1999/xlink" x="0px" y="0px"
	 viewBox="0 0 56.7 56.7" style="enable-background:new 0 0 56.7 56.7;" xml:space="preserve">
<style type="text/css">
	.st0{fill:#14385F;}
	.st1{fill:#F6D7DB;}
	.st2{fill:#CDE9E3;}
	.st3{fill:#FFFFFF;}
	.st4{fill:#FEEA95;}
	.st5{fill:#C8CAE5;}
</style>
<g>
	<path class="st0" d="M54.7,24C48.2,8.1,29.4,1.4,14.4,9.9c-0.4,0.2-0.9,0.3-1.3,0.3c-3.2,0-6.4,0-9.5,0c-1.1,0-1.4,0.3-1.4,1.4
		c0,1.1,0,2.1,0,3.2c0,1.1,0.3,1.4,1.4,1.4c1,0,2,0,3.1,0c-0.1,0.2-0.1,0.2-0.1,0.3C6.4,16.8,6.2,17,6,17.3
		C2.4,21.8,0.4,27,0.2,32.8c-0.2,4.9-0.1,9.8-0.1,14.7c0,1.9,1.3,3.1,3.3,3.1c16.7,0,33.3,0,49.9,0c2.2,0,3.3-1.1,3.3-3.3
		c0-4.3,0-8.6,0-12.9C56.6,30.8,56,27.3,54.7,24z M49,35.7c-0.3,0.6-0.7,0.9-1.4,0.7c-3.4-1.4-6.7-2.9-10.1-4.3
		c-0.1,0-0.1-0.1-0.2-0.2c0.6-1.4,1.1-2.7,1.8-4.1c0.6-1.4,0.6-1.4,1.9-0.8c2.9,1.2,5.8,2.4,8.6,3.7c0.9,0.4,1.1,0.9,0.7,1.7
		C50,33.5,49.5,34.6,49,35.7z M54.5,42.3c-0.5-2.3-1.8-4.1-4-5.1c0.6-1.3,1.1-2.6,1.6-3.8c0.9-2.1,0.3-3.6-1.8-4.5
		c-6-2.6-12-5.1-18-7.6c-1.8-0.7-3.4-0.1-4.2,1.7c-0.4,0.9-0.8,1.8-1.1,2.7c-0.3,0.9-0.5,1.8-0.8,2.7c-1.3,0.2-2.9,0.3-4.3,0.7
		s-2.7,1.3-4,1.9c0.3-0.5,0.6-1.3,1.1-1.9c1.9-2.4,2.2-5.2,2.6-8c0.2-1.1,0.4-2.2,0.6-3.3c0.1-0.5,0.1-1-0.5-1.3
		c-0.5-0.3-0.9-0.1-1.3,0.2c-2.1,1.7-4.2,3.4-6.3,5.2c-0.4,0.3-0.6,0.9-0.9,1.3C9.6,29.3,6,35.4,2.5,41.5c-0.1,0.1-0.2,0.3-0.3,0.4
		c-0.1,0-0.1,0-0.2,0c0-0.5,0-0.9,0-1.4c0-2.5-0.1-5.1,0.1-7.6c0.7-9.8,5.4-17.2,14-21.7C29,4.4,44.6,9.3,51.5,22
		c2,3.7,3.1,7.6,3.1,11.9c0.1,2.7,0,5.4,0,8.1C54.7,42.1,54.7,42.2,54.5,42.3z"/>
	<path class="st1" d="M49.7,30.6c-2.9-1.2-5.8-2.5-8.6-3.7c-1.4-0.6-1.4-0.6-1.9,0.8c-0.6,1.4-1.2,2.8-1.8,4.1
		c0.1,0.1,0.1,0.2,0.2,0.2c3.4,1.4,6.7,2.9,10.1,4.3c0.6,0.3,1.1-0.1,1.4-0.7c0.5-1.1,1-2.2,1.4-3.4C50.8,31.4,50.7,31,49.7,30.6z"
		/>
	<path class="st0" d="M4.2,14.3c0-0.7,0-1.4,0-2.1c2.2,0,4.3,0,6.5,0c0.1,0.1,0.1,0.1,0.1,0.2c-1.1,0.6-1.6,2.1-3.3,1.9
		C6.4,14.2,5.3,14.3,4.2,14.3z"/>
	<path class="st2" d="M3.9,48.1c-0.3-0.2-0.7-0.5-1.1-0.6c-0.9-0.5-1-1-0.5-1.8c1.8-3,3.5-6,5.2-9c2.3-4.1,4.7-8,7.1-12.1
		c0.1-0.1,0.2-0.2,0.3-0.5c1.2,0.7,2.3,1.4,3.5,2.1c-0.4,0.7-0.8,1.4-1.2,2.1C13.5,34.7,9.8,41.1,6,47.5C5.4,48.6,5,48.7,3.9,48.1z"
		/>
	<path class="st0" d="M16.4,22.5c1.2-1,2.3-1.8,3.5-2.9c-0.3,1.6-0.5,3-0.8,4.5C18.1,23.6,17.3,23.1,16.4,22.5z"/>
	<path class="st3" d="M7.7,48.6c2.2-3.8,4.5-7.6,6.6-11.3c-0.6,4.6,0.9,8.4,4.6,11.3C15.1,48.6,11.5,48.6,7.7,48.6z"/>
	<path class="st0" d="M16.2,39.4c0-4.7,3.9-9.2,9.4-9.1c5,0.2,8.8,4.3,8.8,9.1c0,5.1-4.1,9.1-9.1,9.1C20.2,48.6,16.3,44.5,16.2,39.4
		z"/>
	<path class="st1" d="M35.5,31.3c-2.2-1-4.4-1.8-6.6-2.8c-0.6-0.3-0.7-0.8-0.5-1.4c0.5-1.1,1-2.3,1.4-3.4c0.3-0.9,0.8-1,1.7-0.7
		c1.7,0.7,3.3,1.4,5,2.1c0.4,0.2,0.9,0.3,1.4,0.6C37.1,27.6,36.3,29.4,35.5,31.3z"/>
	<path class="st3" d="M31.8,48.6c2.5-1.9,4-4.3,4.5-7.2c0.5-3-0.2-5.6-1.7-8.3c3.3,1.4,6.5,2.7,9.9,4.2c-2.1,1.2-3.4,2.9-3.8,5.2
		c-0.4,2.3,0.3,4.3,1.9,6.1C39,48.6,35.4,48.6,31.8,48.6z"/>
	<path class="st0" d="M47.6,48.6c-2.9,0-5.1-2.3-5.1-5.1c0.1-2.9,2.3-5.1,5.2-5c2.7,0.1,4.9,2.3,4.9,5.1
		C52.6,46.3,50.3,48.6,47.6,48.6z"/>
	<path class="st0" d="M54.5,47.9c-0.1,0.3-0.6,0.6-0.9,0.7c-0.3,0.1-0.6,0-0.9,0c0.6-1.3,1.3-2.4,1.8-3.5
		C54.6,45.9,54.7,46.9,54.5,47.9z"/>
	<path class="st4" d="M34.5,39.4c0-4.8-3.8-8.9-8.8-9.1c-5.5-0.2-9.4,4.3-9.4,9.1c0,5.1,4.1,9.1,9.1,9.1
		C30.4,48.6,34.5,44.5,34.5,39.4z"/>
	<path class="st5" d="M47.7,38.5c-2.9-0.1-5.2,2.2-5.2,5c-0.1,2.8,2.2,5.1,5.1,5.1c2.8,0,5.1-2.2,5.1-5
		C52.7,40.8,50.4,38.5,47.7,38.5z"/>
	<path class="st3" d="M10.7,12.4c-0.1-0.1-0.1-0.1-0.1-0.2c-2.2,0-4.3,0-6.5,0c0,0.7,0,1.3,0,2.1c1.1,0,2.2-0.1,3.4,0
		C9.2,14.4,9.6,12.9,10.7,12.4z"/>
	<path class="st2" d="M19.9,19.7c-1.3,1-2.4,1.9-3.5,2.9c0.9,0.6,1.8,1,2.7,1.6C19.4,22.7,19.6,21.3,19.9,19.7z"/>
	<path class="st0" d="M52.8,48.6c0.2,0,0.6,0.1,0.9,0c0.3-0.2,0.9-0.4,0.9-0.7c0.1-1,0.1-1.9,0.1-2.8C54,46.2,53.4,47.4,52.8,48.6z"
		/>
</g>
</svg>
