<svg width="22" height="21" viewBox="0 0 22 21" fill="none" xmlns="http://www.w3.org/2000/svg">
<path fill-rule="evenodd" clip-rule="evenodd" d="M10.6921 6.12486C8.75911 6.12486 7.19212 7.69185 7.19212 9.62484C7.19212 11.5578 8.75911 13.1248 10.6921 13.1248C12.6251 13.1248 14.1921 11.5578 14.1921 9.62484C14.1921 7.69185 12.6251 6.12486 10.6921 6.12486ZM5.44214 9.62484C5.44214 6.72536 7.79262 4.37488 10.6921 4.37488C13.5916 4.37488 15.9421 6.72536 15.9421 9.62484C15.9421 12.5243 13.5916 14.8748 10.6921 14.8748C7.79262 14.8748 5.44214 12.5243 5.44214 9.62484Z" fill="black"/>
<path fill-rule="evenodd" clip-rule="evenodd" d="M0.192139 1.74999C0.192139 0.783495 0.975634 0 1.94212 0H19.442C20.4085 0 21.192 0.783495 21.192 1.74999V19.2498C21.192 20.2163 20.4085 20.9998 19.442 20.9998H1.94212C0.975634 20.9998 0.192139 20.2163 0.192139 19.2498V1.74999ZM19.442 1.74999H1.94212V19.2498H19.442V1.74999Z" fill="black"/>
<path fill-rule="evenodd" clip-rule="evenodd" d="M10.6919 14.8749C9.10556 14.8749 7.56619 15.4135 6.32595 16.4027C5.08571 17.3918 4.2181 18.7728 3.86522 20.3194C3.75772 20.7906 3.28865 21.0854 2.81751 20.9779C2.34637 20.8704 2.05158 20.4013 2.15908 19.9302C2.60015 17.997 3.68459 16.2709 5.2348 15.0345C6.785 13.7982 8.70909 13.1249 10.6919 13.1249C12.6748 13.1249 14.5989 13.7982 16.1491 15.0345C17.6993 16.2709 18.7837 17.997 19.2248 19.9302C19.3323 20.4013 19.0375 20.8704 18.5664 20.9779C18.0952 21.0854 17.6262 20.7906 17.5187 20.3194C17.1658 18.7728 16.2982 17.3918 15.0579 16.4027C13.8177 15.4135 12.2783 14.8749 10.6919 14.8749Z" fill="black"/>
</svg>
